<?xml version="1.0" encoding="UTF-8"?>
<svg version="1.1" xmlns="http://www.w3.org/2000/svg" width="460" height="460">
<path d="M0 0 C151.8 0 303.6 0 460 0 C460 151.8 460 303.6 460 460 C308.2 460 156.4 460 0 460 C0 308.2 0 156.4 0 0 Z " fill="#FEFEFF" transform="translate(0,0)"/>
<path d="M0 0 C6.34839314 4.05486189 11.3395357 10.59389786 13.56412697 17.83667183 C14.05402549 20.26813968 14.13074579 22.499611 14.13803101 24.98043823 C14.14348434 25.98381729 14.14893768 26.98719635 14.15455627 28.02098083 C14.1555986 29.11604446 14.15664093 30.21110809 14.15771484 31.33935547 C14.16279556 32.49763351 14.16787628 33.65591156 14.17311096 34.84928894 C14.18381668 37.36742266 14.19243607 39.88556591 14.19923019 42.40371323 C14.21103001 46.3985071 14.23021065 50.39322374 14.25234985 54.38796997 C14.31412391 65.74753953 14.36811361 77.10710539 14.40136719 88.46679688 C14.41981729 94.74209673 14.4488878 101.01725748 14.4893719 107.29245484 C14.51028185 110.60612785 14.52417966 113.91959129 14.52817917 117.23333359 C13.95536511 144.56410803 13.95536511 144.56410803 26.0390625 168.28125 C37.02510388 178.68499236 49.1909493 181.63002575 63.93359375 181.24609375 C78.02306793 180.5792738 89.64719204 175.12457145 99.84375 165.4765625 C103.38938971 161.40421545 105.2148935 157.04871725 107 152 C107.37898437 150.99324219 107.75796875 149.98648438 108.1484375 148.94921875 C111.63414884 139.22136477 112.14703593 130.09337946 112.15771484 119.82397461 C112.16279556 118.74311081 112.16787628 117.66224701 112.17311096 116.54862976 C112.18375967 114.21609731 112.1924011 111.88355499 112.19923019 109.55100822 C112.21108718 105.85569413 112.23055472 102.16049335 112.25234985 98.46522522 C112.3137563 87.96375295 112.36805533 77.46229551 112.40136719 66.96069336 C112.4223268 60.52466955 112.45763143 54.08885826 112.50212479 47.65295601 C112.51626384 45.20622826 112.52500247 42.75946299 112.52817917 40.31269646 C112.53309535 36.89044834 112.55626977 33.4687641 112.58349609 30.04663086 C112.57898689 28.5400592 112.57898689 28.5400592 112.5743866 27.00305176 C112.69359449 16.89754479 115.62009371 10.60054077 122.58203125 3.20703125 C129.11357263 -2.75471492 136.18417442 -4.33413746 144.80859375 -4.19921875 C154.98819313 -3.56377252 161.17178494 0.49770155 168 8 C172.02846492 13.45277706 173.12202602 18.31377975 173.13803101 24.98336792 C173.14348434 26.20866211 173.14893768 27.4339563 173.15455627 28.69638062 C173.15567597 30.05133051 173.1567265 31.40628047 173.15771484 32.76123047 C173.16238492 34.19049231 173.1675288 35.61975266 173.17311096 37.04901123 C173.18437955 40.12538386 173.19281966 43.20174687 173.19923019 46.27813339 C173.20992164 51.14445338 173.23016914 56.01070414 173.25234985 60.87698364 C173.31423698 74.71434358 173.36829071 88.55169912 173.40136719 102.38916016 C173.41971785 110.03262036 173.44865748 117.67596423 173.4893719 125.31933892 C173.51043076 129.36268086 173.52589761 133.4058763 173.52817917 137.44927597 C173.53032808 141.25295563 173.54622198 145.05633003 173.57256889 148.85991669 C173.57975352 150.25385733 173.5818669 151.647835 173.57846642 153.04179001 C173.57455832 154.94876968 173.59081696 156.85575855 173.60800171 158.76266479 C173.61296693 160.36155705 173.61296693 160.36155705 173.61803246 161.99275017 C174.06887173 165.54223063 175.16738455 167.94130095 177 171 C180.76162163 173.72717568 183.86904076 174.11278989 188.375 174.3125 C194.26113389 174.70544354 197.97607248 176.71034142 202 181 C204.59238134 184.70053816 205.38283205 187.20690716 205.3984375 191.7109375 C205.40230469 192.79117188 205.40617188 193.87140625 205.41015625 194.984375 C205.39275391 196.66273438 205.39275391 196.66273438 205.375 198.375 C205.38660156 199.48617187 205.39820313 200.59734375 205.41015625 201.7421875 C205.37597031 211.31425184 203.49733641 217.02417389 196.96484375 224.13671875 C188.68139989 231.99199255 180.30459423 232.38086021 169.3515625 232.2109375 C163.59850836 232.00929432 158.43599233 230.88141346 153 229 C151.86949219 228.62101563 150.73898437 228.24203125 149.57421875 227.8515625 C140.96209369 224.59495565 130.34764178 218.69528356 126 210 C122.45972886 211.31121153 120.83952232 213.40059093 118.53125 216.29296875 C105.33351337 231.00575168 83.69308686 238.00316164 64.42431641 239.15380859 C61.6789958 239.26283211 58.93369819 239.35362071 56.1875 239.4375 C43.29625903 239.87195873 31.29188367 243.32198807 22.08203125 253.01953125 C20.57252086 254.9688496 19.24184048 256.87056199 18 259 C17.48896729 259.86294678 16.97793457 260.72589355 16.45141602 261.61499023 C14.75192531 265.57856276 14.55925861 269.01525973 14.55859375 273.25 C14.54538589 274.02633789 14.53217804 274.80267578 14.51856995 275.60253906 C14.47790301 278.06839633 14.45607305 280.53388478 14.4375 283 C14.41362146 285.46600145 14.38536193 287.93166035 14.34571838 290.39746094 C14.32158697 291.92663651 14.30654559 293.45599204 14.30210876 294.98535156 C14.17104168 304.0039072 10.5622279 312.48490255 4.109375 318.87109375 C-4.5951923 325.74221872 -12.99009239 327.11236724 -24 326 C-31.72493401 324.06588835 -38.11014059 318.88636265 -42.8125 312.5625 C-46.41622433 304.78604224 -47.43825758 298.92127858 -47.40113831 290.37493896 C-47.40793498 289.22092504 -47.41473164 288.06691111 -47.42173427 286.87792706 C-47.43738532 283.69242545 -47.43969848 280.50724512 -47.43615115 277.3217175 C-47.43553679 273.87916036 -47.45211758 270.43667787 -47.46632385 266.99415588 C-47.49119509 260.25611606 -47.49948618 253.51815498 -47.50116099 246.78007308 C-47.5025888 241.30028282 -47.50876466 235.82051845 -47.51826286 230.34073639 C-47.5446697 214.78825586 -47.55852304 199.23583731 -47.55627144 183.6833342 C-47.55615157 182.84569036 -47.5560317 182.00804652 -47.5559082 181.14501953 C-47.55578556 180.30634729 -47.55566292 179.46767505 -47.55553656 178.60358849 C-47.55431758 165.01622476 -47.58301904 151.42911059 -47.6253233 137.84181902 C-47.66846587 123.87453677 -47.68913104 109.90737611 -47.68654197 95.94002557 C-47.68554781 88.10480469 -47.69371186 80.26984544 -47.72607613 72.43468475 C-47.75345907 65.76296044 -47.75986202 59.09161636 -47.73954786 52.41986004 C-47.72978497 49.01948882 -47.732749 45.62043812 -47.7556076 42.22004128 C-47.77884058 38.52371476 -47.7647897 34.82928274 -47.74171448 31.13299561 C-47.75714517 30.07226829 -47.77257586 29.01154098 -47.78847414 27.91867042 C-47.66778684 19.12928488 -44.89415012 11.42083781 -39.02389342 4.75662303 C-28.24052698 -5.55832891 -13.06747529 -7.50734666 0 0 Z " fill="#7D58FE" transform="translate(151,69)"/>
</svg>
