<?xml version="1.0" encoding="UTF-8"?>
<svg version="1.1" xmlns="http://www.w3.org/2000/svg" width="768" height="590">
<path d="M0 0 C9.9 0 19.8 0 30 0 C30 0.99 30 1.98 30 3 C28.02 3.66 26.04 4.32 24 5 C23.67 13.58 23.34 22.16 23 31 C34.22 31 45.44 31 57 31 C56.505 27.535 56.505 27.535 56 24 C55.86967583 22.38853618 55.76155176 20.7750007 55.68359375 19.16015625 C55.64169922 18.32548828 55.59980469 17.49082031 55.55664062 16.63085938 C55.51732422 15.78330078 55.47800781 14.93574219 55.4375 14.0625 C55.39431641 13.18787109 55.35113281 12.31324219 55.30664062 11.41210938 C55.20153099 9.27488005 55.10036015 7.13745762 55 5 C52.36 4.34 49.72 3.68 47 3 C47.33 2.01 47.66 1.02 48 0 C57.57 0 67.14 0 77 0 C77.495 1.485 77.495 1.485 78 3 C75.69 3.33 73.38 3.66 71 4 C70.9768207 11.88432568 70.9590564 19.7686371 70.94818783 27.65298843 C70.94297124 31.31408136 70.93589579 34.97515096 70.92456055 38.63623047 C70.9136882 42.16995218 70.90771393 45.70365146 70.90512276 49.23738861 C70.90237831 51.24039958 70.89457317 53.24340154 70.88670349 55.24639893 C70.88659019 57.07784454 70.88659019 57.07784454 70.88647461 58.94628906 C70.884254 60.02106506 70.88203339 61.09584106 70.87974548 62.20318604 C70.98475618 64.64546747 71.29234836 66.67184517 72 69 C74.31 69.33 76.62 69.66 79 70 C79 71.32 79 72.64 79 74 C69.43 74 59.86 74 50 74 C49.67 72.68 49.34 71.36 49 70 C50.98 70 52.96 70 55 70 C55.66 59.44 56.32 48.88 57 38 C45.78 38 34.56 38 23 38 C23.144375 42.929375 23.28875 47.85875 23.4375 52.9375 C23.48060303 54.49460693 23.52370605 56.05171387 23.56811523 57.65600586 C23.6252771 59.47950562 23.6252771 59.47950562 23.68359375 61.33984375 C23.72025146 62.59144287 23.75690918 63.84304199 23.79467773 65.13256836 C23.67803906 67.89630504 23.67803906 67.89630504 25 69 C27.32817964 69.36760731 29.6618385 69.70241581 32 70 C32 71.32 32 72.64 32 74 C22.1 74 12.2 74 2 74 C2 72.68 2 71.36 2 70 C4.475 69.505 4.475 69.505 7 69 C8.06782486 65.79652541 8.12058306 63.51812177 8.11352539 60.15161133 C8.11344986 58.9505928 8.11337433 57.74957428 8.11329651 56.51216125 C8.10813522 55.21521835 8.10297394 53.91827545 8.09765625 52.58203125 C8.09579077 51.24110466 8.09436748 49.90017739 8.09336853 48.55924988 C8.08955356 45.03290927 8.07973199 41.50660996 8.06866455 37.98028564 C8.0584285 34.38074299 8.05386621 30.78119365 8.04882812 27.18164062 C8.0381088 20.12107687 8.02104462 13.06054113 8 6 C5.36 5.01 2.72 4.02 0 3 C0 2.01 0 1.02 0 0 Z " fill="#000000" transform="translate(531,146)"/>
<path d="M0 0 C7.81014192 5.63445953 12.32130034 12.71624696 14.125 22.1875 C14.4048898 24.98639804 14.45936984 27.75093946 14.4375 30.5625 C14.43331055 31.30419434 14.42912109 32.04588867 14.42480469 32.81005859 C14.24211532 41.71324986 11.85619865 48.68284008 7.125 56.1875 C6.465 56.1875 5.805 56.1875 5.125 56.1875 C4.8878125 56.77402344 4.650625 57.36054688 4.40625 57.96484375 C1.21256226 63.50511304 -5.72555714 67.0738692 -11.625 69.125 C-22.98132205 72.02677314 -34.75092666 70.77428979 -45.0625 65.31640625 C-47.78074496 63.62336144 -49.76432371 61.58340282 -51.875 59.1875 C-52.720625 58.300625 -53.56625 57.41375 -54.4375 56.5 C-61.8903395 47.47195468 -62.87631454 35.3820329 -61.875 24.1875 C-59.79582868 14.50450215 -54.53978113 5.1090794 -46.25 -0.52734375 C-32.09296966 -8.18797365 -13.79328584 -8.64348998 0 0 Z M-41.875 7.1875 C-48.42343357 17.67750664 -48.31800758 30.67570531 -46.296875 42.59765625 C-43.75734953 50.62024807 -38.17402792 57.57196675 -30.9921875 61.94140625 C-25.68714792 64.0620925 -20.49242833 63.82519276 -14.875 63.1875 C-8.62110569 60.28390621 -4.42179748 55.35390717 -2.0625 48.9375 C0.66152162 38.66404704 0.90730105 24.84165829 -3.875 15.1875 C-7.69467008 8.84391812 -12.327787 3.51770488 -19.375 0.875 C-27.89846454 -0.79925196 -35.92297333 0.3237467 -41.875 7.1875 Z " fill="#000000" transform="translate(330.875,150.8125)"/>
<path d="M0 0 C0.74104663 -0.00145344 1.48209326 -0.00290688 2.24559584 -0.00440437 C4.72480278 -0.008049 7.20394764 -0.00458491 9.68315411 -0.0011425 C11.48084774 -0.002295 13.27854114 -0.0038834 15.07623404 -0.00586975 C20.01479146 -0.01004703 24.95332958 -0.00797938 29.89188707 -0.00488353 C35.22133317 -0.00262245 40.55077593 -0.00611306 45.88022137 -0.00886345 C56.33223512 -0.01331645 66.7842417 -0.01234561 77.23625574 -0.00945081 C85.7553975 -0.00718976 94.27453726 -0.00688732 102.79367924 -0.00797462 C104.00777969 -0.00812786 105.22188014 -0.00828109 106.47277152 -0.00843897 C108.93998522 -0.00875872 111.40719892 -0.00908294 113.87441262 -0.00941156 C137.0410378 -0.0122663 160.20765904 -0.00898211 183.37428357 -0.00361119 C203.15031269 0.00083263 222.92633592 0.00010106 242.70236492 -0.00452995 C265.72107896 -0.00991789 288.73978951 -0.0119662 311.75850409 -0.00891769 C314.22964076 -0.0085992 316.70077743 -0.00828483 319.1719141 -0.00797462 C320.38731443 -0.00782035 321.60271476 -0.00766607 322.8549454 -0.00750712 C331.31846306 -0.00665271 339.78197848 -0.00808186 348.2454958 -0.01045418 C358.62852553 -0.01330058 369.01154774 -0.01241552 379.39457665 -0.00717343 C384.66854267 -0.0045964 389.94249629 -0.00342489 395.21646214 -0.00682259 C425.27507798 -0.02463515 455.30946071 0.42649213 485.35983562 1.12584114 C485.35983562 1.78584114 485.35983562 2.44584114 485.35983562 3.12584114 C393.64738796 4.48432433 301.9261855 4.28063651 210.20628318 4.25530192 C193.47279702 4.25077658 176.73931778 4.2516556 160.00583172 4.25621223 C140.32792466 4.26156849 120.65002165 4.26367295 100.97211397 4.26059997 C98.87744069 4.26028153 96.78276742 4.25996716 94.68809414 4.25965691 C93.65858023 4.25950263 92.62906633 4.25934836 91.56835503 4.2591894 C84.37021214 4.25833167 77.17207189 4.25976974 69.97392941 4.26213646 C61.25005744 4.26494382 52.52619447 4.26417398 43.80232354 4.25885572 C39.36847482 4.2562403 34.93464109 4.25517763 30.5007925 4.25850487 C26.43679756 4.26150895 22.37283138 4.25980765 18.30883901 4.25452732 C16.84928606 4.25342128 15.38973062 4.25395336 13.93017931 4.2564031 C4.35667448 4.27122776 -5.10064863 3.8748409 -14.64016438 3.12584114 C-14.64016438 2.46584114 -14.64016438 1.80584114 -14.64016438 1.12584114 C-9.70647232 0.32251593 -5.01450128 0.00061864 0 0 Z " fill="#000000" transform="translate(146.64016437530518,393.87415885925293)"/>
<path d="M0 0 C10.56 0 21.12 0 32 0 C32 0.99 32 1.98 32 3 C29.69 3.33 27.38 3.66 25 4 C24.99191315 4.94467636 24.98382629 5.88935272 24.97549438 6.86265564 C24.89779838 15.79266787 24.81000108 24.72253214 24.71247292 33.65235043 C24.66266061 38.24256848 24.61632996 42.8327652 24.578125 47.4230957 C24.54108098 51.85820897 24.49467072 56.29313681 24.44193649 60.72809029 C24.42349362 62.41480804 24.40834893 64.10156538 24.39665604 65.78834343 C24.28412658 81.46900421 23.10690041 93.25514931 11.70703125 104.82421875 C9.79929667 107.25581638 9.35635709 108.96298656 9 112 C8.4225 111.79375 7.845 111.5875 7.25 111.375 C4.99153177 110.83322298 4.99153177 110.83322298 2.8125 111.625 C0.74166667 112.91041667 0.74166667 112.91041667 0.25 115.625 C0.1675 116.40875 0.085 117.1925 0 118 C2.64 117.67 5.28 117.34 8 117 C8 119.31 8 121.62 8 124 C7.34 124 6.68 124 6 124 C6 123.34 6 122.68 6 122 C4.02 121.67 2.04 121.34 0 121 C0 124.63 0 128.26 0 132 C2.3431213 131.74438677 4.67843403 131.40729228 7 131 C7.495 130.01 7.495 130.01 8 129 C8.66 129 9.32 129 10 129 C9.505 131.97 9.505 131.97 9 135 C3.72 135 -1.56 135 -7 135 C-7 134.34 -7 133.68 -7 133 C-6.34 133 -5.68 133 -5 133 C-5 124.75 -5 116.5 -5 108 C-5.99 107.67 -6.98 107.34 -8 107 C-7 106 -7 106 -4.93359375 105.90234375 C-4.10988281 105.91394531 -3.28617188 105.92554688 -2.4375 105.9375 C-1.19806641 105.95103516 -1.19806641 105.95103516 0.06640625 105.96484375 C1.02353516 105.98224609 1.02353516 105.98224609 2 106 C13.47482732 91.02140861 9.27587183 65.12589669 9.19561768 47.11340332 C9.18472311 44.02540832 9.18515156 40.93745721 9.18575573 37.8494463 C9.18548322 34.85276559 9.17999175 31.85611306 9.17275429 28.85944176 C9.16959613 27.43898416 9.16760697 26.01852343 9.16686058 24.59806252 C9.16467593 22.6185044 9.15510893 20.63895866 9.14526367 18.65942383 C9.14145187 17.53901199 9.13764008 16.41860016 9.13371277 15.26423645 C8.99132565 11.78823911 8.5466338 8.43375327 8 5 C5.03 4.01 2.06 3.02 -1 2 C-0.67 1.34 -0.34 0.68 0 0 Z " fill="#000000" transform="translate(228,134)"/>
<path d="M0 0 C1 1 1 1 1.02172852 2.76586914 C0.97459717 3.51473389 0.92746582 4.26359863 0.87890625 5.03515625 C0.83056641 5.84404297 0.78222656 6.65292969 0.73242188 7.48632812 C0.67634766 8.33646484 0.62027344 9.18660156 0.5625 10.0625 C0.51029297 10.91650391 0.45808594 11.77050781 0.40429688 12.65039062 C0.27421239 14.76721995 0.13770029 16.88365244 0 19 C-0.99 19 -1.98 19 -3 19 C-3.433125 17.7625 -3.86625 16.525 -4.3125 15.25 C-5.50198109 12.09480368 -6.63138475 9.46730756 -9 7 C-13.32302359 5.55899214 -17.48205584 5.44451506 -22 6 C-24.57637471 7.88515223 -25.59667428 9.19334857 -27 12 C-27.55507299 17.77275915 -26.64057481 20.51929254 -23 25 C-19.56231933 28.75098827 -15.86884684 32.13848331 -12 35.4375 C-4.73903386 41.73973663 1.32450515 47.92054638 2.43359375 57.90234375 C2.45727695 59.24718794 2.45811388 60.59260526 2.4375 61.9375 C2.42847656 62.64189209 2.41945312 63.34628418 2.41015625 64.07202148 C2.13926157 72.1922777 -0.05918679 76.40457034 -5.875 81.875 C-11.45514646 86.73221251 -17.27286236 87.34409314 -24.375 87.3125 C-25.45007813 87.33666992 -25.45007813 87.33666992 -26.546875 87.36132812 C-27.26101562 87.36197266 -27.97515625 87.36261719 -28.7109375 87.36328125 C-29.34306152 87.36626221 -29.97518555 87.36924316 -30.62646484 87.37231445 C-34.21851527 86.80886281 -37.59553183 85.27667557 -41 84 C-41 76.74 -41 69.48 -41 62 C-40.01 62 -39.02 62 -38 62 C-37.65388672 63.33804688 -37.65388672 63.33804688 -37.30078125 64.703125 C-36.97464844 65.87359375 -36.64851563 67.0440625 -36.3125 68.25 C-35.99925781 69.41015625 -35.68601562 70.5703125 -35.36328125 71.765625 C-33.79890483 75.47709685 -32.37935069 76.87075498 -29 79 C-22.97321785 80.45809245 -19.54460262 80.15281325 -14 77 C-11.35986637 74.12491303 -10.5495731 72.14148805 -10.5 68.25 C-10.45359375 67.05117187 -10.45359375 67.05117187 -10.40625 65.828125 C-12.26421147 56.97836116 -19.54724273 51.40346271 -26.02929688 45.73242188 C-32.79738391 39.64435116 -39.20240517 32.43537709 -40 23 C-40.06682341 16.3176588 -39.56326478 11.17992218 -35 6 C-25.31247792 -3.68752208 -12.57904323 -3.48147257 0 0 Z " fill="#000000" transform="translate(121,134)"/>
<path d="M0 0 C4.96212553 -0.0747135 9.92391641 -0.1288656 14.88647461 -0.16479492 C16.57110302 -0.17978874 18.25569303 -0.20019073 19.94018555 -0.22631836 C40.73321451 -0.54052413 40.73321451 -0.54052413 47.9375 5.4375 C52.87098882 11.56698611 52.7269945 17.31594421 52 25 C50.32996496 31.19012989 46.36956047 35.62033547 41 39 C36.21338783 41.20984708 31.3070671 42.77664397 26 42 C25.34 41.01 24.68 40.02 24 39 C24.67546875 38.78085938 25.3509375 38.56171875 26.046875 38.3359375 C30.18786492 36.86385149 33.37903131 35.57661378 36.625 32.5625 C38.71332746 27.15183339 38.79547073 21.72595599 38 16 C36.55030319 13.27365277 36.55030319 13.27365277 35 11 C35 10.34 35 9.68 35 9 C31.92933254 7.56062463 29.15679349 6.8139386 25.8125 6.43359375 C23.9253125 6.21896484 23.9253125 6.21896484 22 6 C22.10743284 13.9189605 22.22005214 21.83782282 22.33933926 29.75661278 C22.39456189 33.43341429 22.44798081 37.11022376 22.49731445 40.78710938 C22.54496779 44.33385866 22.59731091 47.88051026 22.65294075 51.4271431 C22.67335992 52.7819336 22.69207374 54.13675088 22.70907402 55.49158859 C22.73312739 57.38556789 22.76374383 59.27946043 22.79467773 61.17333984 C22.81799416 62.79216568 22.81799416 62.79216568 22.84178162 64.44369507 C22.83212193 66.99016557 22.83212193 66.99016557 24 69 C26.32156597 69.40729228 28.6568787 69.74438677 31 70 C31 71.32 31 72.64 31 74 C21.43 74 11.86 74 2 74 C1.67 72.68 1.34 71.36 1 70 C2.98 70 4.96 70 7 70 C7 48.55 7 27.1 7 5 C4.36 4.34 1.72 3.68 -1 3 C-0.67 2.01 -0.34 1.02 0 0 Z " fill="#000000" transform="translate(470,146)"/>
<path d="M0 0 C15.18 0 30.36 0 46 0 C46 5.51738922 45.87401535 9.75590789 45 15 C44.01 15 43.02 15 42 15 C41.505 12.03 41.505 12.03 41 9 C37.15156692 7.81968161 33.24108857 7.66788761 29.25 7.4375 C26.8575 7.293125 24.465 7.14875 22 7 C22 14.92 22 22.84 22 31 C24.8875 30.87625 27.775 30.7525 30.75 30.625 C32.10496582 30.57400146 32.10496582 30.57400146 33.48730469 30.52197266 C34.20821289 30.4863623 34.92912109 30.45075195 35.671875 30.4140625 C36.77160645 30.36693115 36.77160645 30.36693115 37.89355469 30.31884766 C40.24922918 29.96227477 41.93450591 29.16337117 44 28 C44.33 28.33 44.66 28.66 45 29 C44.909084 31.70108504 44.76259234 34.36930311 44.5625 37.0625 C44.51029297 37.82111328 44.45808594 38.57972656 44.40429688 39.36132812 C44.27424165 41.24121722 44.13771962 43.12065685 44 45 C43.01 45.33 42.02 45.66 41 46 C40.01 43.69 39.02 41.38 38 39 C32.72 38.67 27.44 38.34 22 38 C22.14029459 42.12525788 22.28697311 46.25011392 22.4375 50.375 C22.47681641 51.550625 22.51613281 52.72625 22.55664062 53.9375 C22.59853516 55.05898437 22.64042969 56.18046875 22.68359375 57.3359375 C22.72025146 58.37282715 22.75690918 59.4097168 22.79467773 60.47802734 C22.84164223 62.99425166 22.84164223 62.99425166 24 65 C27.19156448 66.06385483 29.58497476 66.16677982 32.9375 66.1875 C33.97777344 66.20167969 35.01804687 66.21585937 36.08984375 66.23046875 C39.01675763 65.99867289 40.61131751 65.6769306 43 64 C44.10493335 62.30049572 44.10493335 62.30049572 44.75 60.375 C45.1625 59.26125 45.575 58.1475 46 57 C46.66 57 47.32 57 48 57 C49.01153668 60.90367676 48.90317294 63.80583577 48.125 67.75 C47.94195312 68.71421875 47.75890625 69.6784375 47.5703125 70.671875 C47 73 47 73 46 74 C44.58774954 74.0928726 43.17091066 74.11746772 41.75561523 74.11352539 C40.85475693 74.11344986 39.95389862 74.11337433 39.02574158 74.11329651 C38.04658279 74.10813522 37.06742401 74.10297394 36.05859375 74.09765625 C35.06118668 74.0962413 34.0637796 74.09482635 33.03614807 74.09336853 C29.83656876 74.08775114 26.63705831 74.07519571 23.4375 74.0625 C21.27408955 74.05748724 19.11067801 74.05292395 16.94726562 74.04882812 C11.63148675 74.03777607 6.31574829 74.02102104 1 74 C0.67 73.34 0.34 72.68 0 72 C0.495 71.01 0.495 71.01 1 70 C2.98 70 4.96 70 7 70 C7 48.88 7 27.76 7 6 C4.36 5.01 1.72 4.02 -1 3 C-0.67 2.01 -0.34 1.02 0 0 Z " fill="#000000" transform="translate(411,146)"/>
<path d="M0 0 C0 5.28 0 10.56 0 16 C-1.32 16 -2.64 16 -4 16 C-4.15855469 15.37351563 -4.31710937 14.74703125 -4.48046875 14.1015625 C-5.77459619 9.04447333 -5.77459619 9.04447333 -9.25 5.4375 C-13.8711227 4.70232139 -17.48861467 4.29468685 -21.8125 6.3125 C-24.68872136 8.53129933 -25.87636851 10.20522614 -26.4375 13.8125 C-25.87011616 17.94629652 -23.89287368 20.16432874 -21 23 C-18.78359601 24.6535711 -16.44798134 26.04306814 -14.0625 27.4375 C-6.32165482 32.20217728 -0.71012427 36.96625244 2 46 C2.9647965 52.95725474 2.12536291 58.61113455 -1.3046875 64.765625 C-4.88350679 69.48240987 -10.10607676 73.02824205 -16 74 C-18.43537556 74.11940838 -20.87422963 74.17524739 -23.3125 74.1875 C-24.58738281 74.20167969 -25.86226563 74.21585937 -27.17578125 74.23046875 C-32.02795135 73.93804992 -36.46671739 73.53328261 -40 70 C-40.52771213 64.02522535 -40.30251268 57.86130707 -39 52 C-38.01 52 -37.02 52 -36 52 C-35.84144531 52.67546875 -35.68289063 53.3509375 -35.51953125 54.046875 C-34.45199619 58.12827977 -33.59394918 61.28376716 -30.875 64.5625 C-26.91804195 66.54097902 -23.42880462 67.33253823 -19 67 C-16.14930901 66.00384776 -14.47121639 64.85341229 -12 63 C-10.77602225 59.32806676 -10.27403769 55.80297686 -11 52 C-13.84358235 46.61215977 -17.33608416 44.12177562 -22.375 41.0625 C-28.87303336 36.9178337 -33.88335081 33.32950972 -37.375 26.1875 C-38.73997812 19.22611161 -38.98609907 13.12150928 -35 7 C-34.484375 6.13375 -33.96875 5.2675 -33.4375 4.375 C-24.59318156 -4.24254104 -10.97833789 -3.65944596 0 0 Z " fill="#000000" transform="translate(397,147)"/>
<path d="M0 0 C20.46 0.33 40.92 0.66 62 1 C62 12 62 12 61 17 C60.01 17 59.02 17 58 17 C57.855625 16.05125 57.71125 15.1025 57.5625 14.125 C56.38436158 10.94811976 56.38436158 10.94811976 54.21484375 10.19140625 C50.11988386 9.25974871 45.99339337 8.89505764 41.8203125 8.47973633 C40.91812988 8.3898494 40.01594727 8.29996246 39.08642578 8.20735168 C38.05364502 8.1047126 38.05364502 8.1047126 37 8 C37.11872856 14.88283417 37.24351907 21.76554027 37.37231445 28.64819336 C37.41534237 30.98443171 37.45703647 33.32069505 37.49731445 35.65698242 C37.74696796 53.35361728 37.74696796 53.35361728 39 71 C41.64 71 44.28 71 47 71 C46.505 72.98 46.505 72.98 46 75 C36.43 75 26.86 75 17 75 C17 73.68 17 72.36 17 71 C19.475 70.505 19.475 70.505 22 70 C22.73517923 66.02182999 23.14128812 62.22152136 23.20532227 58.17822266 C23.22526749 57.05751373 23.24521271 55.93680481 23.26576233 54.78213501 C23.29083107 52.99118912 23.29083107 52.99118912 23.31640625 51.1640625 C23.33718735 49.92957367 23.35796844 48.69508484 23.37937927 47.42318726 C23.44461836 43.49051329 23.50364052 39.55777411 23.5625 35.625 C23.60520612 32.95441143 23.64932464 30.28384851 23.69335938 27.61328125 C23.80027347 21.07558921 23.90208701 14.53783271 24 8 C21.08014262 8.22830161 18.16621546 8.48163661 15.25 8.75 C14.0125 8.8428125 14.0125 8.8428125 12.75 8.9375 C7.74552743 9.41639196 7.74552743 9.41639196 3.484375 11.953125 C1.969672 13.92477736 1.969672 13.92477736 1 16 C0.01 16 -0.98 16 -2 16 C-1.85764543 14.27054347 -1.71095618 12.54144346 -1.5625 10.8125 C-1.48128906 9.84957031 -1.40007812 8.88664063 -1.31640625 7.89453125 C-1.02650639 5.24248442 -0.52320735 2.61603677 0 0 Z " fill="#000000" transform="translate(133,145)"/>
<path d="M0 0 C1.2684375 -0.00515625 2.536875 -0.0103125 3.84375 -0.015625 C7.5 0.25 7.5 0.25 13.5 2.25 C13.5 7.53 13.5 12.81 13.5 18.25 C12.51 18.25 11.52 18.25 10.5 18.25 C10.15388672 17.31027344 10.15388672 17.31027344 9.80078125 16.3515625 C7.91703091 11.32098613 7.91703091 11.32098613 4.1875 7.6875 C-0.80922084 6.87408033 -4.19354892 6.64516154 -8.875 8.8125 C-11.7456955 11.08706509 -11.7456955 11.08706509 -12.625 14.625 C-12.46849054 19.16377428 -11.30645242 20.71359792 -8.5 24.25 C-6.23507415 25.8555869 -4.07845623 27.25270233 -1.6875 28.625 C5.88829236 33.25111684 12.30330728 38.3222607 15.0625 47.1171875 C16.64153905 54.81500289 15.72039222 60.65379257 11.5 67.25 C10.96375 68.1575 10.4275 69.065 9.875 70 C3.13002845 76.38997305 -5.05356167 76.8209589 -13.984375 76.5859375 C-18.32971464 76.17071616 -23.25692417 75.49307583 -26.5 72.25 C-26.6002074 69.78018231 -26.63877038 67.34448776 -26.625 64.875 C-26.62886719 64.18921875 -26.63273438 63.5034375 -26.63671875 62.796875 C-26.63065046 59.67777362 -26.49341455 57.23024365 -25.5 54.25 C-24.51 54.25 -23.52 54.25 -22.5 54.25 C-22.38785156 55.08144531 -22.27570312 55.91289062 -22.16015625 56.76953125 C-21.2428598 62.99006489 -21.2428598 62.99006489 -17.578125 67.75 C-12.40810592 69.60407581 -7.76527905 69.65407441 -2.5 68.25 C0.6866503 66.4801177 0.6866503 66.4801177 2.5 63.25 C3.37748736 58.52088668 3.50469668 54.79351527 0.83203125 50.6875 C-1.71167286 48.02875399 -4.26585648 46.21200405 -7.375 44.25 C-15.15766333 39.18464126 -20.79277682 35.24365989 -24.25 26.3125 C-25.1322497 19.03394001 -24.56416656 13.49522955 -20.5 7.25 C-14.73912538 1.50307423 -7.98495579 -0.03245917 0 0 Z " fill="#000000" transform="translate(671.5,144.75)"/>
<path d="M0 0 C1.24239337 -0.00155999 2.48478673 -0.00311998 3.76482838 -0.00472724 C7.18075644 -0.0080035 10.59662877 -0.00685412 14.01255333 -0.00374103 C17.71312334 -0.00146359 21.41368874 -0.00497908 25.11425781 -0.00772095 C32.36751399 -0.01216042 39.6207598 -0.01120801 46.87401638 -0.00830831 C52.80704559 -0.00603687 58.74007191 -0.00574928 64.67310143 -0.00683212 C65.94710876 -0.00706197 65.94710876 -0.00706197 67.24685362 -0.00729647 C68.97380629 -0.00761628 70.70075896 -0.0079405 72.42771163 -0.00826906 C88.63283492 -0.01112117 104.83795256 -0.00784634 121.04307493 -0.00246869 C134.78264102 0.00195153 148.52219861 0.00126306 162.26176453 -0.00338745 C178.3230019 -0.0088215 194.38423425 -0.01079699 210.44547242 -0.00777519 C212.18361072 -0.00745678 213.92174901 -0.00714241 215.65988731 -0.00683212 C216.51428752 -0.00667785 217.36868773 -0.00652357 218.24897886 -0.00636462 C224.10681679 -0.00552183 229.96465137 -0.00693165 235.82248878 -0.00931168 C281.26143214 -0.02621872 326.6814393 0.35773776 372.11405945 1.12698364 C372.11405945 1.78698364 372.11405945 2.44698364 372.11405945 3.12698364 C333.16800022 4.35009227 294.2209011 4.27613866 255.26058415 4.26228309 C248.60036792 4.25997951 241.94015425 4.25972247 235.27993774 4.26079941 C234.32165269 4.26095264 233.36336764 4.26110587 232.37604365 4.26126375 C230.42806534 4.26158354 228.48008703 4.26190776 226.53210872 4.26223634 C208.43462071 4.26506192 190.33713784 4.26184735 172.23965067 4.25643598 C156.72675575 4.25194159 141.2138683 4.25277101 125.70097351 4.25735474 C107.59324951 4.26270281 89.48552992 4.26481763 71.37780523 4.26174247 C69.450387 4.26142396 67.52296877 4.26110959 65.59555054 4.26079941 C64.17365199 4.26056799 64.17365199 4.26056799 62.72302821 4.26033191 C56.05383576 4.2594696 49.38464612 4.26092285 42.7154541 4.26327896 C34.61576084 4.26607842 26.51607727 4.26533437 18.41638511 4.25999822 C14.28795426 4.25736768 10.1595396 4.25634566 6.03110886 4.25964737 C2.25530145 4.26262176 -1.52047469 4.26099851 -5.29627925 4.25566982 C-7.31154767 4.25402009 -9.32681824 4.2572922 -11.34208441 4.26072705 C-12.53650986 4.2581193 -13.73093532 4.25551155 -14.96155548 4.25282478 C-15.99240501 4.25266243 -17.02325454 4.25250008 -18.08534193 4.25233281 C-20.78826079 4.13135559 -23.25374779 3.7352281 -25.88594055 3.12698364 C-25.55594055 2.46698364 -25.22594055 1.80698364 -24.88594055 1.12698364 C-16.76690242 -0.33824923 -8.22367035 -0.01611486 0 0 Z " fill="#000000" transform="translate(208.8859405517578,450.8730163574219)"/>
<path d="M0 0 C1.85253906 0.23413086 1.85253906 0.23413086 4 1 C5.28027344 2.85766602 5.28027344 2.85766602 6.359375 5.25390625 C6.75253906 6.10791016 7.14570313 6.96191406 7.55078125 7.84179688 C7.94652344 8.73962891 8.34226562 9.63746094 8.75 10.5625 C9.16121094 11.46419922 9.57242187 12.36589844 9.99609375 13.29492188 C11.01056126 15.52439116 12.01108285 17.75910866 13 20 C14.98018765 17.46496525 16.62365181 14.99454385 18.04296875 12.109375 C18.56987305 11.04589844 18.56987305 11.04589844 19.10742188 9.9609375 C19.46384766 9.23132813 19.82027344 8.50171875 20.1875 7.75 C20.73954102 6.63238281 20.73954102 6.63238281 21.30273438 5.4921875 C22.2054758 3.66325683 23.1032362 1.83186904 24 0 C24.99 0 25.98 0 27 0 C27.17390259 1.15786011 27.17390259 1.15786011 27.35131836 2.33911133 C27.87729828 5.83066121 28.40734992 9.32158098 28.9375 12.8125 C29.21110352 14.63491211 29.21110352 14.63491211 29.49023438 16.49414062 C29.66748047 17.65751953 29.84472656 18.82089844 30.02734375 20.01953125 C30.18968506 21.09307861 30.35202637 22.16662598 30.51928711 23.27270508 C30.94553006 26.08117472 30.94553006 26.08117472 32 29 C34.01508358 29.73323796 34.01508358 29.73323796 36 30 C35.505 31.485 35.505 31.485 35 33 C33.37509046 33.02698189 31.75005367 33.04638757 30.125 33.0625 C29.22007812 33.07410156 28.31515625 33.08570313 27.3828125 33.09765625 C25 33 25 33 23 32 C22.62109375 29.34765625 22.62109375 29.34765625 22.4375 26.0625 C22.30484497 21.87751203 22.30484497 21.87751203 21 18 C20.52949219 18.99902344 20.05898438 19.99804688 19.57421875 21.02734375 C18.94584455 22.33098575 18.31690905 23.63435731 17.6875 24.9375 C17.37876953 25.59685547 17.07003906 26.25621094 16.75195312 26.93554688 C15.91049022 28.66276021 14.96052335 30.3360527 14 32 C12.515 32.495 12.515 32.495 11 33 C8.36 28.05 5.72 23.1 3 18 C2.34 21.96 1.68 25.92 1 30 C1.99 30 2.98 30 4 30 C4 30.99 4 31.98 4 33 C0.37 33 -3.26 33 -7 33 C-7 32.01 -7 31.02 -7 30 C-6.34 29.67 -5.68 29.34 -5 29 C-4.24274862 26.09348672 -4.24274862 26.09348672 -3.7109375 22.55859375 C-3.60278717 21.91632339 -3.49463684 21.27405304 -3.38320923 20.61231995 C-3.03880746 18.55533106 -2.70678893 16.49655717 -2.375 14.4375 C-2.1440403 13.04478712 -1.91227972 11.6522068 -1.6796875 10.25976562 C-1.11048158 6.84133467 -0.55236599 3.42119713 0 0 Z " fill="#000000" transform="translate(433,407)"/>
<path d="M0 0 C0.66 0 1.32 0 2 0 C2.40726318 1.17357056 2.40726318 1.17357056 2.82275391 2.37084961 C4.06458364 5.90268065 5.34411542 9.4196551 6.625 12.9375 C7.05167969 14.16919922 7.47835937 15.40089844 7.91796875 16.66992188 C8.56572266 18.4246582 8.56572266 18.4246582 9.2265625 20.21484375 C9.61408691 21.29886475 10.00161133 22.38288574 10.40087891 23.49975586 C10.92858887 24.32483643 11.45629883 25.14991699 12 26 C13.98 26.33 15.96 26.66 18 27 C18 18.09 18 9.18 18 0 C21.2908988 1.09696627 21.96796717 1.84801856 24.125 4.4375 C27.01053274 7.84205791 29.94581929 11.18795033 32.9375 14.5 C34.278125 15.985 35.61875 17.47 37 19 C37.33 13.72 37.66 8.44 38 3 C37.01 3 36.02 3 35 3 C35 2.34 35 1.68 35 1 C37.97 1 40.94 1 44 1 C44 1.66 44 2.32 44 3 C43.34 3 42.68 3 42 3 C42 11.58 42 20.16 42 29 C41.01 29.495 41.01 29.495 40 30 C39.34 29.67 38.68 29.34 38 29 C38 28.34 38 27.68 38 27 C37.34 27 36.68 27 36 27 C34.51953125 25.53125 34.51953125 25.53125 32.8125 23.5 C31.89210938 22.4171875 31.89210938 22.4171875 30.953125 21.3125 C30.30859375 20.549375 29.6640625 19.78625 29 19 C27.69037735 17.49748719 26.37802609 15.99734677 25.0625 14.5 C24.051875 13.345 23.04125 12.19 22 11 C22 15.95 22 20.9 22 26 C22.66 26.33 23.32 26.66 24 27 C24 27.66 24 28.32 24 29 C18.06 29 12.12 29 6 29 C5.505 26.525 5.505 26.525 5 24 C4.67 23.01 4.34 22.02 4 21 C1.36 20.67 -1.28 20.34 -4 20 C-4.144375 20.78375 -4.28875 21.5675 -4.4375 22.375 C-5 25 -5 25 -6 27 C-5.34 27 -4.68 27 -4 27 C-4 27.66 -4 28.32 -4 29 C-6.97 29 -9.94 29 -13 29 C-13 28.34 -13 27.68 -13 27 C-12.01 26.67 -11.02 26.34 -10 26 C-8.75287712 23.52769217 -8.75287712 23.52769217 -7.7734375 20.46875 C-7.3815625 19.34855469 -6.9896875 18.22835938 -6.5859375 17.07421875 C-6.18632812 15.89472656 -5.78671875 14.71523438 -5.375 13.5 C-4.57250658 11.17632444 -3.7679329 8.8533659 -2.9609375 6.53125 C-2.60821777 5.49548828 -2.25549805 4.45972656 -1.89208984 3.39257812 C-1 1 -1 1 0 0 Z M-1 10 C-1.33 12.31 -1.66 14.62 -2 17 C-0.35 17 1.3 17 3 17 C2.34 14.69 1.68 12.38 1 10 C0.34 10 -0.32 10 -1 10 Z " fill="#000000" transform="translate(198,289)"/>
<path d="M0 0 C3.33121544 1.45009686 5.52056562 3.27477676 8.07421875 5.84375 C8.82380859 6.59527344 9.57339844 7.34679687 10.34570312 8.12109375 C11.11849609 8.90613281 11.89128906 9.69117188 12.6875 10.5 C13.47189453 11.28503906 14.25628906 12.07007813 15.06445312 12.87890625 C20.85953152 18.71906304 20.85953152 18.71906304 22 21 C22 15.39 22 9.78 22 4 C20.68 3.67 19.36 3.34 18 3 C18 2.34 18 1.68 18 1 C22.29 1 26.58 1 31 1 C30.67 1.99 30.34 2.98 30 4 C29.34 4 28.68 4 28 4 C27.67 13.57 27.34 23.14 27 33 C22.02761069 32.00552214 21.32289009 31.82779426 18.125 28.4375 C17.444375 27.72207031 16.76375 27.00664062 16.0625 26.26953125 C13.48495415 23.43325447 10.93856694 20.5747921 8.4453125 17.6640625 C7.34597202 16.39833536 6.1854566 15.1854566 5 14 C5 19.28 5 24.56 5 30 C6.32 30.33 7.64 30.66 9 31 C8.67 31.66 8.34 32.32 8 33 C4.04 33 0.08 33 -4 33 C-4 32.01 -4 31.02 -4 30 C-3.01 30 -2.02 30 -1 30 C-1.00523682 29.12674072 -1.01047363 28.25348145 -1.01586914 27.35375977 C-1.03287751 24.12410727 -1.04543369 20.89447755 -1.05493164 17.66479492 C-1.0599708 16.26504772 -1.06680216 14.8653058 -1.07543945 13.46557617 C-1.0875232 11.45754223 -1.09269807 9.44947043 -1.09765625 7.44140625 C-1.10289307 6.23170166 -1.10812988 5.02199707 -1.11352539 3.77563477 C-1 1 -1 1 0 0 Z " fill="#000000" transform="translate(341,407)"/>
<path d="M0 0 C4.06307606 2.90219719 6.93539764 5.34927847 8.26171875 10.20703125 C9.08024251 15.93669757 8.71808681 20.88615031 5.625 25.875 C2.29123511 29.52669887 -1.04252635 31.666987 -6.046875 32.11328125 C-12.76251201 32.27520651 -17.07931255 32.17774605 -22.375 27.875 C-26.09828683 23.10155535 -27.02772581 19.34029603 -26.76171875 13.3046875 C-25.95323524 8.22512447 -23.58735633 4.99864733 -19.8125 1.5 C-14.00161354 -2.3739243 -6.46806564 -2.15602188 0 0 Z M-17.0625 5.75 C-19.03414178 10.44438518 -19.05193422 14.85685718 -18.375 19.875 C-16.38531547 23.78575925 -15.00966354 25.45189098 -11.375 27.875 C-7.41392476 28.3071173 -5.26147377 28.5281912 -2 26.125 C1.04186577 21.91318586 0.97311231 18.00965653 0.625 12.875 C-0.62613943 8.92403338 -1.52166238 6.57114385 -4.75 3.9375 C-9.21807967 2.12899156 -13.64201769 1.9494641 -17.0625 5.75 Z " fill="#000000" transform="translate(318.375,408.125)"/>
<path d="M0 0 C3.78820742 2.22384646 5.85712089 4.24994873 7.625 8.375 C8.37078676 14.0305496 8.45180569 18.72138862 5.875 23.875 C5.1325 24.7 4.39 25.525 3.625 26.375 C2.944375 27.138125 2.26375 27.90125 1.5625 28.6875 C-2.66007438 32.36522607 -7.88998058 31.70547519 -13.203125 31.65234375 C-18.71605895 31.1703015 -21.08815137 28.72957751 -24.75 24.875 C-27.14631539 19.71370532 -27.13602467 14.97122182 -26.375 9.375 C-24.21562362 4.89629344 -21.44547061 2.19301812 -17.375 -0.625 C-11.62113793 -2.54295402 -5.56893183 -2.51803484 0 0 Z M-16.1875 4.375 C-18.82835906 7.99674956 -19.5171272 10.98577762 -19.375 15.375 C-18.44950675 20.83541018 -16.92569132 24.11037362 -12.375 27.375 C-9.30117549 28.12665092 -7.64033658 27.89330739 -4.375 27.375 C-1.6338939 24.72590983 -0.49289275 23.0246297 0.19140625 19.25390625 C0.39062434 11.94879716 0.39062434 11.94879716 -2.75 5.625 C-5.56381766 3.21315629 -6.56708552 2.48272193 -10.1875 2 C-13.51031436 2.13221003 -13.51031436 2.13221003 -16.1875 4.375 Z " fill="#000000" transform="translate(503.375,408.625)"/>
<path d="M0 0 C4.50112374 3.75093645 5.80599486 7.02761437 6.375 12.8125 C6.24218036 17.49660612 4.64208878 21.1685465 2 25 C-3.5168488 30.12278817 -7.35065623 30.3590842 -14.7265625 30.26953125 C-19.44515939 29.88100716 -21.38046518 29.08045517 -25 26 C-28.15140237 21.73522793 -29.69001883 17.32860568 -29.38671875 12.015625 C-28.41578744 6.95501332 -26.16092806 3.13190486 -22.5 -0.4375 C-15.7682648 -4.6448345 -6.53618297 -4.35745531 0 0 Z M-19 3 C-21.91256418 7.65592696 -21.63761937 12.69162667 -21 18 C-19.01031547 21.91075925 -17.63466354 23.57689098 -14 26 C-8.9400049 26.55406809 -8.9400049 26.55406809 -4.625 24.1875 C-1.38223531 19.82223984 -1.50897876 15.2226805 -2 10 C-3.29590547 6.31690024 -4.31759318 4.53874223 -7.375 2.125 C-11.66921313 0.28462294 -15.09938508 0.30992075 -19 3 Z " fill="#000000" transform="translate(411,410)"/>
<path d="M0 0 C2.06183633 -0.08150744 4.12461349 -0.1394194 6.1875 -0.1875 C7.33605469 -0.22230469 8.48460937 -0.25710937 9.66796875 -0.29296875 C13.57912447 0.0509195 16.2059851 1.2059851 19 4 C19.36666667 11.33333333 19.36666667 11.33333333 17.625 14.5 C16.71935174 16.97749691 16.71935174 16.97749691 17.9921875 19.01171875 C21.46298368 24.02009562 22.77511753 24.92503918 29 27 C29 18.75 29 10.5 29 2 C28.34 2 27.68 2 27 2 C27 1.34 27 0.68 27 0 C29.97 0 32.94 0 36 0 C35.67 0.99 35.34 1.98 35 3 C34.91760831 4.84610532 34.89256641 6.69505164 34.90234375 8.54296875 C34.90556641 9.61611328 34.90878906 10.68925781 34.91210938 11.79492188 C34.92048828 12.91447266 34.92886719 14.03402344 34.9375 15.1875 C34.94201172 16.31865234 34.94652344 17.44980469 34.95117188 18.61523438 C34.96296502 21.41020927 34.9794235 24.2050782 35 27 C35.66 27 36.32 27 37 27 C37 27.66 37 28.32 37 29 C21.77702692 30.06798141 21.77702692 30.06798141 17.640625 27.58203125 C16.15666833 25.7882795 15.05360441 24.07164412 14 22 C11.7203903 18.59008397 11.7203903 18.59008397 8 17 C8 20.3 8 23.6 8 27 C8.99 27 9.98 27 11 27 C11 27.66 11 28.32 11 29 C7.7 29 4.4 29 1 29 C1 28.34 1 27.68 1 27 C1.66 27 2.32 27 3 27 C3 18.75 3 10.5 3 2 C2.01 2 1.02 2 0 2 C0 1.34 0 0.68 0 0 Z M8 3 C8 6.96 8 10.92 8 15 C9.65 15 11.3 15 13 15 C15.36139302 12.10538099 15.36139302 12.10538099 14.8125 8.4375 C14.35160238 4.74174248 14.35160238 4.74174248 11 3 C10.01 3 9.02 3 8 3 Z " fill="#000000" transform="translate(549,240)"/>
<path d="M0 0 C4.95 0 9.9 0 15 0 C14.67 0.99 14.34 1.98 14 3 C13.01 3 12.02 3 11 3 C11.08719463 6.06383902 11.19410397 9.12484051 11.3125 12.1875 C11.33505859 13.05181641 11.35761719 13.91613281 11.38085938 14.80664062 C11.58166472 19.57120391 11.76044261 23.22179887 15 27 C18 27.66666667 18 27.66666667 21 27 C23.20946427 25.36399939 23.91331291 24.45477683 24.43237305 21.73168945 C24.45855713 20.86761475 24.48474121 20.00354004 24.51171875 19.11328125 C24.54716797 18.17548828 24.58261719 17.23769531 24.61914062 16.27148438 C24.64169922 15.29501953 24.66425781 14.31855469 24.6875 13.3125 C24.72166016 12.32443359 24.75582031 11.33636719 24.79101562 10.31835938 C24.87350538 7.87901947 24.94265068 5.44003937 25 3 C23.68 2.67 22.36 2.34 21 2 C21 1.34 21 0.68 21 0 C25.29 0 29.58 0 34 0 C33.67 0.99 33.34 1.98 33 3 C32.34 3 31.68 3 31 3 C31.05220703 4.80984375 31.05220703 4.80984375 31.10546875 6.65625 C31.13362984 8.27081928 31.16092749 9.88540379 31.1875 11.5 C31.21263672 12.29148437 31.23777344 13.08296875 31.26367188 13.8984375 C31.33090318 19.36658324 30.82460405 24.21033037 28 29 C23.62504631 32.73201286 19.3422712 32.50368211 13.8203125 32.34765625 C10.06558286 31.88481562 8.34799478 30.97412673 6 28 C3.67343637 22.6915027 3.76384188 17.80261498 3.875 12.125 C3.88402344 11.24585938 3.89304687 10.36671875 3.90234375 9.4609375 C3.92575423 7.3071729 3.9616199 5.15354986 4 3 C2.68 2.67 1.36 2.34 0 2 C0 1.34 0 0.68 0 0 Z " fill="#000000" transform="translate(520,408)"/>
<path d="M0 0 C4.62 0 9.24 0 14 0 C13.67 0.99 13.34 1.98 13 3 C12.34 3 11.68 3 11 3 C11.13888506 6.27116732 11.28730492 9.541834 11.4375 12.8125 C11.47681641 13.74126953 11.51613281 14.67003906 11.55664062 15.62695312 C11.61948242 16.9659668 11.61948242 16.9659668 11.68359375 18.33203125 C11.72025146 19.15421143 11.75690918 19.9763916 11.79467773 20.82348633 C11.93427772 23.17905178 11.93427772 23.17905178 13 26 C15.76250036 27.38125018 17.94731099 27.19079306 21 27 C24.23366779 23.76633221 24.05205743 20.18112705 24.09765625 15.79296875 C24.09106747 14.25778191 24.07922794 12.72260984 24.0625 11.1875 C24.05798828 10.39923828 24.05347656 9.61097656 24.04882812 8.79882812 C24.03711312 6.86585239 24.01917998 4.93291607 24 3 C23.01 2.67 22.02 2.34 21 2 C21 1.34 21 0.68 21 0 C25.29 0 29.58 0 34 0 C33.67 0.99 33.34 1.98 33 3 C32.01 3 31.02 3 30 3 C30.01571045 3.57443848 30.0314209 4.14887695 30.04760742 4.74072266 C30.11035513 7.36871309 30.14911506 9.99654537 30.1875 12.625 C30.21263672 13.52863281 30.23777344 14.43226563 30.26367188 15.36328125 C30.32170298 20.6634551 30.09526462 24.47882696 27 29 C24.68129498 31.36358318 23.45336126 31.93639223 20.16015625 32.3984375 C18.62681641 32.38683594 18.62681641 32.38683594 17.0625 32.375 C16.04285156 32.38273437 15.02320313 32.39046875 13.97265625 32.3984375 C10.56209181 31.94130534 8.71985018 31.09073701 6 29 C4.02031696 25.87174949 3.76206049 23.46279814 3.8046875 19.796875 C3.81113281 18.8171875 3.81757813 17.8375 3.82421875 16.828125 C3.84097656 15.81234375 3.85773438 14.7965625 3.875 13.75 C3.88402344 12.71875 3.89304688 11.6875 3.90234375 10.625 C3.92587989 8.08309713 3.95875977 5.5416672 4 3 C2.68 3 1.36 3 0 3 C0 2.01 0 1.02 0 0 Z " fill="#000000" transform="translate(213,408)"/>
<path d="M0 0 C0.99 0 1.98 0 3 0 C5.81605921 6.28496661 8.56411828 12.59583484 11.25 18.9375 C11.61351562 19.78634766 11.97703125 20.63519531 12.3515625 21.50976562 C12.69445312 22.31994141 13.03734375 23.13011719 13.390625 23.96484375 C13.70032227 24.6930835 14.01001953 25.42132324 14.32910156 26.17163086 C15 28 15 28 15 30 C16.32 30 17.64 30 19 30 C19 30.99 19 31.98 19 33 C15.04 33 11.08 33 7 33 C5 26.375 5 26.375 5 23 C2.03 23 -0.94 23 -4 23 C-4.144375 23.78375 -4.28875 24.5675 -4.4375 25.375 C-5 28 -5 28 -6 30 C-5.01 30 -4.02 30 -3 30 C-3.33 30.99 -3.66 31.98 -4 33 C-7.63 33 -11.26 33 -15 33 C-15.33 32.01 -15.66 31.02 -16 30 C-15.40219727 29.967854 -14.80439453 29.93570801 -14.18847656 29.90258789 C-11.70265001 29.14198432 -11.70265001 29.14198432 -10.44433594 26.22436523 C-9.96254883 25.01466064 -9.48076172 23.80495605 -8.984375 22.55859375 C-8.72368225 21.91632339 -8.4629895 21.27405304 -8.19439697 20.61231995 C-7.36504796 18.55954549 -6.55741055 16.49898906 -5.75 14.4375 C-5.19151294 13.0443563 -4.63163359 11.65176987 -4.0703125 10.25976562 C-2.69732715 6.84616251 -1.34368485 3.42525873 0 0 Z M0 12 C-0.33 13.98 -0.66 15.96 -1 18 C0.32 17.67 1.64 17.34 3 17 C2.34 15.35 1.68 13.7 1 12 C0.67 12 0.34 12 0 12 Z " fill="#000000" transform="translate(189,407)"/>
<path d="M0 0 C1.19109375 -0.00386719 1.19109375 -0.00386719 2.40625 -0.0078125 C4.5 0.125 4.5 0.125 6.5 1.125 C6.5 3.765 6.5 6.405 6.5 9.125 C5.51 9.125 4.52 9.125 3.5 9.125 C2.84 7.805 2.18 6.485 1.5 5.125 C-0.15 5.455 -1.8 5.785 -3.5 6.125 C-2.28538776 11.13527549 0.89356489 13.4513974 4.72265625 16.57421875 C7.33853036 18.85664078 7.48034897 19.9166991 7.8125 23.4375 C7.45124058 27.70036111 6.48007946 29.14492054 3.5 32.125 C0.89080172 33.42959914 -1.08942615 33.2576594 -4 33.25 C-4.9796875 33.25257813 -5.959375 33.25515625 -6.96875 33.2578125 C-9.5 33.125 -9.5 33.125 -11.5 32.125 C-11.5 29.155 -11.5 26.185 -11.5 23.125 C-10.51 23.125 -9.52 23.125 -8.5 23.125 C-8.2525 23.929375 -8.005 24.73375 -7.75 25.5625 C-6.7758309 28.26154257 -6.7758309 28.26154257 -4.5 29 C-2.4267719 29.29760908 -2.4267719 29.29760908 -0.5 28.125 C-0.12769773 25.82275194 -0.12769773 25.82275194 -0.5 23.125 C-2.41338549 20.64430428 -2.41338549 20.64430428 -4.9375 18.4375 C-10.35958107 13.38877036 -10.35958107 13.38877036 -10.8125 9.3125 C-10.42835642 5.3942355 -9.20743683 3.91206733 -6.5 1.125 C-4.13386544 -0.05806728 -2.63219264 -0.00854608 0 0 Z " fill="#000000" transform="translate(576.5,406.875)"/>
<path d="M0 0 C8.91 0 17.82 0 27 0 C27 2.64 27 5.28 27 8 C26.01 8 25.02 8 24 8 C24 7.01 24 6.02 24 5 C21.69 5 19.38 5 17 5 C17 13.25 17 21.5 17 30 C18.32 30 19.64 30 21 30 C21 30.99 21 31.98 21 33 C16.38 33 11.76 33 7 33 C7 32.01 7 31.02 7 30 C7.66 29.67 8.32 29.34 9 29 C9.33 21.08 9.66 13.16 10 5 C7.36 5 4.72 5 2 5 C1.67 5.99 1.34 6.98 1 8 C0.01 7.67 -0.98 7.34 -2 7 C-1.34 4.69 -0.68 2.38 0 0 Z " fill="#000000" transform="translate(256,407)"/>
<path d="M0 0 C3 0 3 0 4.47265625 1.328125 C5.25962891 2.27945313 5.25962891 2.27945313 6.0625 3.25 C6.66320312 3.96671875 7.26390625 4.6834375 7.8828125 5.421875 C8.58148437 6.27265625 9.28015625 7.1234375 10 8 C10.89223617 9.06853828 11.78552164 10.13620099 12.6796875 11.203125 C15.12861014 14.12816698 17.56647268 17.06214006 20 20 C20.05407567 17.41638482 20.093707 14.83390745 20.125 12.25 C20.14175781 11.52039063 20.15851562 10.79078125 20.17578125 10.0390625 C20.21372922 5.86478602 19.91514727 3.83029454 18 0 C20.97 0 23.94 0 27 0 C27 0.66 27 1.32 27 2 C26.01 2.495 26.01 2.495 25 3 C24.67 11.58 24.34 20.16 24 29 C22.68 28.67 21.36 28.34 20 28 C20 27.34 20 26.68 20 26 C19.34 26 18.68 26 18 26 C18 25.34 18 24.68 18 24 C17.34 24 16.68 24 16 24 C14.44038399 22.25998065 12.95050425 20.45696803 11.5 18.625 C8.39240862 14.68517459 8.39240862 14.68517459 5 11 C4.67 16.28 4.34 21.56 4 27 C4.99 27 5.98 27 7 27 C7 27.66 7 28.32 7 29 C3.7 29 0.4 29 -3 29 C-3 28.34 -3 27.68 -3 27 C-2.01 27 -1.02 27 0 27 C0 18.09 0 9.18 0 0 Z " fill="#000000" transform="translate(593,240)"/>
<path d="M0 0 C3.04263267 -0.10845027 6.08136204 -0.18752063 9.125 -0.25 C9.9809375 -0.28351563 10.836875 -0.31703125 11.71875 -0.3515625 C17.35526513 -0.43827812 20.53357292 0.21749456 25 4 C28.38631676 7.83782566 28.50949328 11.63371494 28.35546875 16.5625 C27.6923564 21.1095561 25.30757267 23.81501227 22 26.8125 C16.38632307 30.14562068 9.10875325 29.49740052 2.875 28.5 C2.25625 28.335 1.6375 28.17 1 28 C1 27.34 1 26.68 1 26 C1.66 26 2.32 26 3 26 C3 18.08 3 10.16 3 2 C2.01 2 1.02 2 0 2 C0 1.34 0 0.68 0 0 Z M8 2 C7.97112764 5.81248426 7.95324508 9.6249407 7.9375 13.4375 C7.92912109 14.52611328 7.92074219 15.61472656 7.91210938 16.73632812 C7.90888672 17.77080078 7.90566406 18.80527344 7.90234375 19.87109375 C7.89710693 20.82943115 7.89187012 21.78776855 7.88647461 22.77514648 C7.7494687 24.97285339 7.7494687 24.97285339 9 26 C13.99035504 26.38387346 16.99816167 26.08713243 21 23 C23.69621247 18.9556813 23.54319098 15.74665346 23 11 C21.39571169 7.31013689 19.55142572 4.91968958 16 3 C14.62541391 2.76289112 13.24207852 2.5736013 11.85546875 2.421875 C10.58316406 2.28265625 9.31085938 2.1434375 8 2 Z " fill="#000000" transform="translate(246,290)"/>
<path d="M0 0 C0.99 0 1.98 0 3 0 C4.4296875 1.57421875 4.4296875 1.57421875 5.875 3.6875 C8.33578663 7.14229896 10.95680362 10.03288353 14 13 C16.03742999 15.30360256 18.01740399 17.64854892 20 20 C19.67 14.39 19.34 8.78 19 3 C18.34 2.67 17.68 2.34 17 2 C17 1.34 17 0.68 17 0 C19.97 0 22.94 0 26 0 C26.33 0.66 26.66 1.32 27 2 C26.01 2.495 26.01 2.495 25 3 C24.67 11.58 24.34 20.16 24 29 C19.33511145 27.83377786 17.58866314 25.77989188 14.5625 22.3125 C14.09779297 21.79494141 13.63308594 21.27738281 13.15429688 20.74414062 C10.0154205 17.2287742 7.02034123 13.62440947 4 10 C4 15.61 4 21.22 4 27 C4.99 27 5.98 27 7 27 C7 27.66 7 28.32 7 29 C3.7 29 0.4 29 -3 29 C-3 28.34 -3 27.68 -3 27 C-2.01 27 -1.02 27 0 27 C0 18.09 0 9.18 0 0 Z " fill="#000000" transform="translate(398,240)"/>
<path d="M0 0 C4.12533318 2.06266659 6.46555795 4.43176262 9.4375 7.8125 C10.37256284 8.86168979 11.30875276 9.90987625 12.24609375 10.95703125 C12.69968262 11.46443848 13.15327148 11.9718457 13.62060547 12.49462891 C15.67614438 14.73789491 17.82914273 16.86854123 20 19 C19.88660796 16.35319096 19.75987127 13.70822482 19.625 11.0625 C19.57859375 9.93038086 19.57859375 9.93038086 19.53125 8.77539062 C19.4273685 6.84492605 19.22104386 4.92057919 19 3 C18.34 2.67 17.68 2.34 17 2 C17 1.34 17 0.68 17 0 C19.97 0 22.94 0 26 0 C25.67 0.99 25.34 1.98 25 3 C24.85013589 4.9906444 24.75171962 6.98535391 24.68359375 8.98046875 C24.64169922 10.14384766 24.59980469 11.30722656 24.55664062 12.50585938 C24.51732422 13.72080078 24.47800781 14.93574219 24.4375 16.1875 C24.39431641 17.41404297 24.35113281 18.64058594 24.30664062 19.90429688 C24.2004691 22.93608381 24.09842048 25.96795315 24 29 C20.52091896 28.42537701 18.97942201 27.30773917 16.6171875 24.7265625 C16.00746094 24.0665625 15.39773438 23.4065625 14.76953125 22.7265625 C14.14433594 22.03304688 13.51914062 21.33953125 12.875 20.625 C12.24207031 19.93921875 11.60914063 19.2534375 10.95703125 18.546875 C8.41305649 15.77064777 6.0938618 13.14079269 4 10 C4 15.61 4 21.22 4 27 C4.66 27 5.32 27 6 27 C6 27.66 6 28.32 6 29 C3.03 29 0.06 29 -3 29 C-3 28.34 -3 27.68 -3 27 C-2.34 26.67 -1.68 26.34 -1 26 C-0.67 17.42 -0.34 8.84 0 0 Z " fill="#000000" transform="translate(476,240)"/>
<path d="M0 0 C3.3 0 6.6 0 10 0 C10 0.66 10 1.32 10 2 C9.34 2 8.68 2 8 2 C8 5.3 8 8.6 8 12 C12.29 12 16.58 12 21 12 C21 8.7 21 5.4 21 2 C20.01 2 19.02 2 18 2 C18 1.34 18 0.68 18 0 C21.3 0 24.6 0 28 0 C28 0.66 28 1.32 28 2 C27.34 2 26.68 2 26 2 C26 9.92 26 17.84 26 26 C26.99 26 27.98 26 29 26 C29 26.66 29 27.32 29 28 C25.7 28 22.4 28 19 28 C19 27.34 19 26.68 19 26 C19.66 26 20.32 26 21 26 C21 22.04 21 18.08 21 14 C16.71 14 12.42 14 8 14 C8 17.96 8 21.92 8 26 C8.99 26 9.98 26 11 26 C11 26.66 11 27.32 11 28 C7.7 28 4.4 28 1 28 C1 27.34 1 26.68 1 26 C1.66 26 2.32 26 3 26 C3 18.08 3 10.16 3 2 C2.01 1.67 1.02 1.34 0 1 C0 0.67 0 0.34 0 0 Z " fill="#000000" transform="translate(367,290)"/>
<path d="M0 0 C3.70756388 2.47170925 5.22452944 4.54858832 6.625 8.75 C7.18930864 14.44734689 6.91086378 18.87785716 3.625 23.75 C0.12457725 27.55928358 -3.08981214 28.50602296 -8.09765625 28.84765625 C-12.89862788 28.64178268 -16.19292345 26.77654016 -19.75 23.6875 C-22.41889689 18.86295563 -23.22569874 13.84104823 -21.74609375 8.46484375 C-17.49325404 -1.05511125 -9.44175729 -3.49694715 0 0 Z M-14.25 3.875 C-17.01465553 7.6154163 -17.70738739 10.14629877 -17.1171875 14.76953125 C-16.22480225 19.14221897 -15.13715445 22.06274682 -11.375 24.75 C-8.41407136 25.81289746 -6.81152037 25.85393342 -3.75 25.125 C-0.60631984 23.30497465 0.27892798 22.150603 1.625 18.75 C2.29151563 13.8811846 2.48466951 9.42777408 -0.25 5.1875 C-2.92202883 2.12252576 -3.6390038 1.83332032 -7.6875 1.375 C-11.47100818 1.44309685 -11.47100818 1.44309685 -14.25 3.875 Z " fill="#000000" transform="translate(327.375,241.25)"/>
<path d="M0 0 C3.26690197 2.552518 5.19601696 4.97561499 6.15234375 8.9921875 C6.82470403 14.93136995 5.5148326 19.16319261 2.15234375 23.9921875 C-1.25703035 27.16369829 -3.84836306 28.24024426 -8.41015625 28.4296875 C-12.31296601 28.23323734 -14.775499 27.53768922 -17.84765625 24.9921875 C-21.15234749 21.32030835 -22.67304371 18.77323544 -23.16015625 13.8046875 C-22.70866272 8.29646645 -20.84410584 3.92624804 -16.84765625 0.0546875 C-11.64644332 -2.70845687 -5.2263473 -2.85073489 0 0 Z M-17.16015625 5.6796875 C-18.61537071 10.57449976 -18.36553411 14.61981116 -16.59765625 19.3046875 C-14.8224293 22.03092888 -13.73103822 23.50930534 -10.84765625 24.9921875 C-6.87627123 25.66816793 -5.37374688 25.35460549 -2.03515625 23.0546875 C0.8278215 19.04651865 1.4449602 15.87470191 1.15234375 10.9921875 C0.3049711 7.40979905 -1.13704936 4.72648129 -3.72265625 2.0546875 C-8.92463155 -0.54630015 -13.64979275 1.166363 -17.16015625 5.6796875 Z " fill="#000000" transform="translate(454.84765625,291.0078125)"/>
<path d="M0 0 C3.86720247 2.00521609 6.94761566 4.11127178 9 8 C10.1898155 13.58298045 10.37614561 17.65367238 8 23 C4.81950871 27.00039131 1.51755105 29.26445144 -3.5625 30.0625 C-7.77795221 30.25606668 -10.48559469 29.45191068 -14 27 C-18.44427138 22.07526685 -19.36172836 19.04605317 -19.27734375 12.5390625 C-18.72366713 7.47019202 -15.98848103 4.87354138 -12.3125 1.625 C-8.03706065 -0.47238534 -4.67841608 -0.83842582 0 0 Z M-11.375 4.8125 C-14.39713516 8.88075888 -14.50092053 13.10211041 -14 18 C-12.66712523 21.92457572 -11.60551286 23.55962701 -8.25 26 C-3.97766536 27.3145645 -2.00341002 26.96393699 2 25 C5.12034372 20.22197368 5.26143061 16.68247242 4.51953125 11.11328125 C3.761785 8.03102018 2.89880747 5.66578331 0.3125 3.75 C-4.0531718 2.33410644 -7.63411501 1.95761408 -11.375 4.8125 Z " fill="#000000" transform="translate(165,240)"/>
<path d="M0 0 C3.39569565 2.33870215 4.66072543 5.0770886 5.65625 8.91015625 C6.4288028 14.19189478 5.68099854 18.48210538 3.09375 23.16015625 C-0.66937739 26.92328364 -3.46069035 28.06689434 -8.78125 28.41015625 C-12.62367642 28.34681955 -14.85124461 27.62113282 -17.90625 25.16015625 C-21.97969943 20.52094995 -23.32865954 17.70939581 -23.25 11.61328125 C-22.48492884 6.15345524 -19.50048321 2.38363755 -15.21875 -0.90234375 C-9.98574811 -2.38338202 -5.02612731 -2.21437986 0 0 Z M-16.90625 5.16015625 C-18.59880192 10.23781201 -18.51875636 14.5370144 -16.65625 19.47265625 C-14.3850431 23.01681002 -14.3850431 23.01681002 -10.90625 25.16015625 C-7.12110997 25.34404969 -4.00396417 25.00999948 -0.96875 22.66015625 C1.1629334 17.6444306 1.90797069 12.47477525 -0.03125 7.28515625 C-2.06315186 3.89865315 -3.27203328 2.63114873 -6.90625 1.16015625 C-11.52436912 0.3519854 -13.62936595 1.97429676 -16.90625 5.16015625 Z " fill="#000000" transform="translate(507.90625,290.83984375)"/>
<path d="M0 0 C3.79734263 1.26578088 4.78908048 2.93472291 7.25 6.0625 C11.04994328 10.82642234 14.95720041 15.44109834 19 20 C19.33 14.39 19.66 8.78 20 3 C19.01 3 18.02 3 17 3 C17 2.34 17 1.68 17 1 C19.97 1 22.94 1 26 1 C26 1.66 26 2.32 26 3 C25.01 3.495 25.01 3.495 24 4 C23.67 12.58 23.34 21.16 23 30 C19.7091012 28.90303373 19.03203283 28.15198144 16.875 25.5625 C13.98946726 22.15794209 11.05418071 18.81204967 8.0625 15.5 C6.721875 14.015 5.38125 12.53 4 11 C3.67 16.28 3.34 21.56 3 27 C3.99 27 4.98 27 6 27 C6 27.66 6 28.32 6 29 C3.03 29 0.06 29 -3 29 C-3 28.34 -3 27.68 -3 27 C-2.34 27 -1.68 27 -1 27 C-0.67 18.09 -0.34 9.18 0 0 Z " fill="#000000" transform="translate(403,289)"/>
<path d="M0 0 C1.42119141 -0.00386719 1.42119141 -0.00386719 2.87109375 -0.0078125 C5.26390459 0.11026525 7.27586153 0.44387365 9.5625 1.125 C9.5625 3.765 9.5625 6.405 9.5625 9.125 C8.5725 8.795 7.5825 8.465 6.5625 8.125 C6.2325 7.135 5.9025 6.145 5.5625 5.125 C0.91851989 3.57700663 -3.76267708 3.62905667 -8.4375 5.125 C-9.9813989 10.52864616 -10.52074393 17.8367654 -8.4375 23.125 C-4.49056898 25.5170794 0.05353157 25.66646084 4.5625 26.125 C4.44840407 24.66577307 4.32084456 23.20759402 4.1875 21.75 C4.11789062 20.93789063 4.04828125 20.12578125 3.9765625 19.2890625 C3.73357412 16.92165809 3.73357412 16.92165809 1.5625 15.125 C2.5625 14.125 2.5625 14.125 4.62890625 14.02734375 C5.86447266 14.04474609 5.86447266 14.04474609 7.125 14.0625 C7.95128906 14.07152344 8.77757812 14.08054688 9.62890625 14.08984375 C10.26699219 14.10144531 10.90507812 14.11304688 11.5625 14.125 C11.5625 14.785 11.5625 15.445 11.5625 16.125 C10.9025 16.125 10.2425 16.125 9.5625 16.125 C9.5625 20.085 9.5625 24.045 9.5625 28.125 C4.08457759 30.5756495 -0.68936241 30.39613287 -6.4375 29.125 C-10.56345033 27.17455075 -12.06416399 25.78456029 -14.3125 21.8125 C-15.89055821 16.63997586 -16.1773368 13.01158383 -14.1875 7.9375 C-10.36080105 1.78744812 -7.18215744 -0.01949025 0 0 Z " fill="#000000" transform="translate(256.4375,239.875)"/>
<path d="M0 0 C1.40765625 0.00966797 1.40765625 0.00966797 2.84375 0.01953125 C5.20620585 0.16892184 7.23716665 0.52039111 9.5 1.1875 C9.5 3.8275 9.5 6.4675 9.5 9.1875 C8.84 9.1875 8.18 9.1875 7.5 9.1875 C7.21125 8.548125 6.9225 7.90875 6.625 7.25 C5.67176549 5.03543921 5.67176549 5.03543921 3.5 4.1875 C-2.35549031 3.60629301 -2.35549031 3.60629301 -7.5 6.125 C-10.198212 10.25663712 -10.41353229 13.38299682 -9.5 18.1875 C-7.74927739 21.7537868 -6.52332379 23.61024043 -3.0625 25.5625 C-0.1300028 26.38496348 -0.1300028 26.38496348 4.5 26.1875 C4.5 22.8875 4.5 19.5875 4.5 16.1875 C3.84 16.1875 3.18 16.1875 2.5 16.1875 C2.5 15.5275 2.5 14.8675 2.5 14.1875 C5.47 14.1875 8.44 14.1875 11.5 14.1875 C11.83 14.8475 12.16 15.5075 12.5 16.1875 C11.51 16.1875 10.52 16.1875 9.5 16.1875 C9.5 20.1475 9.5 24.1075 9.5 28.1875 C4.02207759 30.6381495 -0.75186241 30.45863287 -6.5 29.1875 C-10.88191898 27.11604739 -13.41609924 24.90652009 -15.08984375 20.24609375 C-16.03529367 15.50083558 -15.81714126 10.57206429 -13.44921875 6.28515625 C-9.56587984 1.36786333 -6.11835443 -0.09244766 0 0 Z " fill="#000000" transform="translate(442.5,239.8125)"/>
<path d="M0 0 C1.04027344 -0.00257813 2.08054688 -0.00515625 3.15234375 -0.0078125 C6.0625 0.125 6.0625 0.125 10.0625 1.125 C10.0625 4.095 10.0625 7.065 10.0625 10.125 C9.4025 10.125 8.7425 10.125 8.0625 10.125 C7.794375 9.320625 7.52625 8.51625 7.25 7.6875 C6.858125 6.841875 6.46625 5.99625 6.0625 5.125 C1.98858038 3.76702679 -1.68215968 3.4829662 -5.9375 4.125 C-9.80457149 6.70304766 -10.74184712 8.39130169 -11.9375 12.875 C-12.32151557 18.83853599 -10.60143687 24.05768449 -6.875 28.6875 C-2.60855969 30.77533249 1.40574465 31.1049433 6.0625 30.125 C8.21852694 27.78750834 8.21852694 27.78750834 9.0625 25.125 C9.3925 25.125 9.7225 25.125 10.0625 25.125 C10.0625 27.765 10.0625 30.405 10.0625 33.125 C4.38644746 35.96302627 -1.19788872 35.88996567 -7.125 34 C-12.32861111 31.82245743 -14.79947228 28.40105543 -17.3125 23.375 C-18.46767691 17.36808007 -17.98681131 12.11507317 -15.125 6.6875 C-10.57310963 1.35528557 -6.9635289 -0.01721515 0 0 Z " fill="#000000" transform="translate(131.9375,234.875)"/>
<path d="M0 0 C0 2.64 0 5.28 0 8 C-0.66 8 -1.32 8 -2 8 C-2.185625 7.360625 -2.37125 6.72125 -2.5625 6.0625 C-3.91615303 3.64872371 -3.91615303 3.64872371 -7.25 3.125 C-11.16873922 2.99437536 -13.51393906 3.21643394 -17 5 C-19.58770445 8.71279335 -19.16876515 12.54156568 -18.5234375 16.84375 C-17.70339526 20.22183445 -16.72471003 21.82023198 -14 24 C-10.93734735 24.70229794 -8.16561751 24.8603404 -5 25 C-4.67 22.03 -4.34 19.06 -4 16 C-4.99 16 -5.98 16 -7 16 C-7 15.34 -7 14.68 -7 14 C-3.7 14 -0.4 14 3 14 C3 14.66 3 15.32 3 16 C2.01 16 1.02 16 0 16 C0 19.63 0 23.26 0 27 C-4.94286002 29.47143001 -8.56466197 29.78229753 -14 29 C-18.70095718 27.23022788 -21.37480506 24.98515567 -24.0625 20.75 C-25.56501832 14.73992672 -25.03465164 10.23484755 -22.4375 4.625 C-16.0746488 -2.22730129 -8.70278105 -1.20388471 0 0 Z " fill="#000000" transform="translate(541,290)"/>
<path d="M0 0 C0.61875 0.33 1.2375 0.66 1.875 1 C1.545 3.31 1.215 5.62 0.875 8 C-1.125 7 -1.125 7 -2.125 4 C-6.207569 2.63914367 -10.14074309 2.29860516 -14.2578125 3.75390625 C-16.64037165 5.34394049 -16.94098392 6.35949436 -17.5625 9.125 C-18.30624006 13.31698945 -18.05277833 16.44446791 -16.30859375 20.3359375 C-14.17931567 23.32957599 -11.55705717 24.05322561 -8.125 25 C-5.33159843 25.25390222 -5.33159843 25.25390222 -3.125 25 C-3.23862262 23.5199159 -3.36622908 22.04089926 -3.5 20.5625 C-3.56960938 19.73878906 -3.63921875 18.91507812 -3.7109375 18.06640625 C-3.84757813 17.38449219 -3.98421875 16.70257813 -4.125 16 C-4.785 15.67 -5.445 15.34 -6.125 15 C-6.125 14.34 -6.125 13.68 -6.125 13 C-2.825 13 0.475 13 3.875 13 C3.875 13.66 3.875 14.32 3.875 15 C3.215 15.33 2.555 15.66 1.875 16 C1.4066735 18.58605332 1.4066735 18.58605332 1.25 21.5625 C1.17523437 22.57441406 1.10046875 23.58632813 1.0234375 24.62890625 C0.97445312 25.41136719 0.92546875 26.19382812 0.875 27 C-4.77733536 29.42105149 -8.87512528 29.72453593 -14.8125 27.8125 C-18.88842745 25.58227554 -21.06160972 23.12678055 -23.125 19 C-23.68345758 13.02879973 -23.60558514 8.0965711 -20.125 3 C-14.56624629 -2.03762055 -6.92580251 -2.2162568 0 0 Z " fill="#000000" transform="translate(646.125,241)"/>
<path d="M0 0 C0.66 0 1.32 0 2 0 C3.29750499 3.18515384 4.58692873 6.37352079 5.875 9.5625 C6.23980469 10.45775391 6.60460937 11.35300781 6.98046875 12.27539062 C8.93955111 17.13747686 10.67767129 21.92643354 12 27 C12.99 27 13.98 27 15 27 C15 27.66 15 28.32 15 29 C12.36 29 9.72 29 7 29 C5.515 24.05 5.515 24.05 4 19 C1.36 19 -1.28 19 -4 19 C-4.93786082 24.05009595 -4.93786082 24.05009595 -4 29 C-6.97 29 -9.94 29 -13 29 C-13 28.34 -13 27.68 -13 27 C-12.01 27 -11.02 27 -10 27 C-9.85304688 26.46375 -9.70609375 25.9275 -9.5546875 25.375 C-7.91067401 19.63040112 -5.96588373 14.03152008 -3.875 8.4375 C-3.60929199 7.72271484 -3.34358398 7.00792969 -3.06982422 6.27148438 C-1.12600343 1.12600343 -1.12600343 1.12600343 0 0 Z M0 9 C-0.66 11.31 -1.32 13.62 -2 16 C-0.35 16 1.3 16 3 16 C2.34 13.69 1.68 11.38 1 9 C0.67 9 0.34 9 0 9 Z " fill="#000000" transform="translate(357,339)"/>
<path d="M0 0 C2.75164432 -0.13517903 5.49664521 -0.23415251 8.25 -0.3125 C9.02730469 -0.35439453 9.80460937 -0.39628906 10.60546875 -0.43945312 C14.69823422 -0.52690538 16.37158694 -0.55130716 19.546875 2.234375 C21.75548283 6.43785442 21.28368751 9.53210061 20 14 C18.375 16.5625 18.375 16.5625 16 18 C12.25 18.25 12.25 18.25 9 18 C9 17.34 9 16.68 9 16 C10.98 15.67 12.96 15.34 15 15 C15.73795731 11.82678355 16.094352 9.46127644 15.4375 6.25 C13.85465212 3.25244157 13.85465212 3.25244157 8 2 C8.33 11.57 8.66 21.14 9 31 C9.99 31 10.98 31 12 31 C12 31.66 12 32.32 12 33 C8.37 33 4.74 33 1 33 C1 32.34 1 31.68 1 31 C1.66 30.67 2.32 30.34 3 30 C3.33 20.76 3.66 11.52 4 2 C2.68 1.67 1.36 1.34 0 1 C0 0.67 0 0.34 0 0 Z " fill="#000000" transform="translate(310,335)"/>
<path d="M0 0 C0.66 0 1.32 0 2 0 C3.67223282 4.12276549 5.33684063 8.24856675 7 12.375 C7.47695313 13.550625 7.95390625 14.72625 8.4453125 15.9375 C8.89648438 17.05898438 9.34765625 18.18046875 9.8125 19.3359375 C10.23144531 20.37282715 10.65039062 21.4097168 11.08203125 22.47802734 C12 25 12 25 12 27 C12.99 27 13.98 27 15 27 C15 27.66 15 28.32 15 29 C12.03 29 9.06 29 6 29 C5.855625 28.0925 5.71125 27.185 5.5625 26.25 C5.13590527 23.78523044 4.64925779 21.41152893 4 19 C1.69 19.33 -0.62 19.66 -3 20 C-4.81301758 24.43093198 -4.81301758 24.43093198 -4 29 C-6.97 29 -9.94 29 -13 29 C-13 28.34 -13 27.68 -13 27 C-12.01 27 -11.02 27 -10 27 C-9.85304688 26.46375 -9.70609375 25.9275 -9.5546875 25.375 C-7.91067401 19.63040112 -5.96588373 14.03152008 -3.875 8.4375 C-3.60929199 7.72271484 -3.34358398 7.00792969 -3.06982422 6.27148438 C-1.12600343 1.12600343 -1.12600343 1.12600343 0 0 Z M0 9 C-1.4606285 11.64738916 -2 12.89448334 -2 16 C-0.35 16 1.3 16 3 16 C2.34 13.69 1.68 11.38 1 9 C0.67 9 0.34 9 0 9 Z " fill="#000000" transform="translate(428,339)"/>
<path d="M0 0 C-0.33 2.31 -0.66 4.62 -1 7 C-1.66 7 -2.32 7 -3 7 C-3 6.01 -3 5.02 -3 4 C-5.31 3.67 -7.62 3.34 -10 3 C-10 6.96 -10 10.92 -10 15 C-5.545 14.505 -5.545 14.505 -1 14 C-1 16.31 -1 18.62 -1 21 C-1.66 21 -2.32 21 -3 21 C-3.33 20.34 -3.66 19.68 -4 19 C-7.02934491 18.34227572 -7.02934491 18.34227572 -10 18 C-9.67 21.96 -9.34 25.92 -9 30 C-6.69 30 -4.38 30 -2 30 C-1.67 29.01 -1.34 28.02 -1 27 C-0.34 27 0.32 27 1 27 C0.67 29.31 0.34 31.62 0 34 C-5.61 34 -11.22 34 -17 34 C-17 33.34 -17 32.68 -17 32 C-16.34 32 -15.68 32 -15 32 C-15 22.43 -15 12.86 -15 3 C-15.99 2.67 -16.98 2.34 -18 2 C-18 1.67 -18 1.34 -18 1 C-15.37504621 0.83257698 -12.75004205 0.6660283 -10.125 0.5 C-9.00544922 0.42845703 -9.00544922 0.42845703 -7.86328125 0.35546875 C-2.2265625 0 -2.2265625 0 0 0 Z " fill="#000000" transform="translate(390,235)"/>
<path d="M0 0 C0 2.97 0 5.94 0 9 C-0.66 9 -1.32 9 -2 9 C-2.66 7.35 -3.32 5.7 -4 4 C-8.93139035 3.01372193 -12.47476086 2.57952325 -17 5 C-19.18963347 8.99846111 -19.33218489 12.69439064 -18.59765625 17.1015625 C-17.54237017 20.45364768 -15.80702106 21.9862675 -13 24 C-9.06728419 24.94927623 -6.8455896 25.2818632 -3 24 C-1.79117904 21.99983534 -1.79117904 21.99983534 -1 20 C-0.67 20 -0.34 20 0 20 C0.1875 23.375 0.1875 23.375 0 27 C-4.4809248 29.9872832 -8.74693675 29.59427112 -14 29 C-17.73502768 27.75723 -20.30887123 25.94643987 -22.66015625 22.7265625 C-24.99615976 17.97282942 -24.61666582 13.17158383 -24 8 C-22.21801539 3.93707508 -20.73523188 2.48494017 -17.0625 0.0625 C-11.65078391 -1.97876133 -5.59402507 -0.69820163 0 0 Z " fill="#000000" transform="translate(363,290)"/>
<path d="M0 0 C5.37992836 0.33990833 9.53273547 0.68557793 14 4 C14.157274 13.95319756 10.01866563 22.55420075 3.390625 29.88671875 C1 32 1 32 -1 32 C-0.38485582 27.93522378 0.50329796 24.07716514 1.625 20.125 C2.95396121 14.90639623 3.23735807 11.23497646 2 6 C1.34 5.01 0.68 4.02 0 3 C0 2.01 0 1.02 0 0 Z " fill="#000000" transform="translate(620,126)"/>
<path d="M0 0 C1.48831242 0.00667405 2.97660807 0.01863442 4.46484375 0.03515625 C5.22345703 0.03966797 5.98207031 0.04417969 6.76367188 0.04882812 C8.64326246 0.06064945 10.52281274 0.07858547 12.40234375 0.09765625 C12.07234375 2.07765625 11.74234375 4.05765625 11.40234375 6.09765625 C10.74234375 6.09765625 10.08234375 6.09765625 9.40234375 6.09765625 C9.40234375 5.43765625 9.40234375 4.77765625 9.40234375 4.09765625 C7.42234375 4.09765625 5.44234375 4.09765625 3.40234375 4.09765625 C3.40234375 6.73765625 3.40234375 9.37765625 3.40234375 12.09765625 C6.04234375 11.76765625 8.68234375 11.43765625 11.40234375 11.09765625 C11.40234375 13.40765625 11.40234375 15.71765625 11.40234375 18.09765625 C10.74234375 18.09765625 10.08234375 18.09765625 9.40234375 18.09765625 C9.40234375 17.43765625 9.40234375 16.77765625 9.40234375 16.09765625 C6.43234375 15.60265625 6.43234375 15.60265625 3.40234375 15.09765625 C3.40234375 18.72765625 3.40234375 22.35765625 3.40234375 26.09765625 C5.71234375 26.09765625 8.02234375 26.09765625 10.40234375 26.09765625 C10.73234375 25.10765625 11.06234375 24.11765625 11.40234375 23.09765625 C12.06234375 23.75765625 12.72234375 24.41765625 13.40234375 25.09765625 C13.07234375 26.41765625 12.74234375 27.73765625 12.40234375 29.09765625 C7.12234375 29.09765625 1.84234375 29.09765625 -3.59765625 29.09765625 C-3.59765625 28.43765625 -3.59765625 27.77765625 -3.59765625 27.09765625 C-2.93765625 27.09765625 -2.27765625 27.09765625 -1.59765625 27.09765625 C-1.59765625 18.84765625 -1.59765625 10.59765625 -1.59765625 2.09765625 C-2.58765625 1.76765625 -3.57765625 1.43765625 -4.59765625 1.09765625 C-3.59765625 0.09765625 -3.59765625 0.09765625 0 0 Z " fill="#000000" transform="translate(510.59765625,239.90234375)"/>
<path d="M0 0 C8.25 0.33 16.5 0.66 25 1 C25 2.98 25 4.96 25 7 C24.01 7.495 24.01 7.495 23 8 C22.67 6.68 22.34 5.36 22 4 C19.36 4 16.72 4 14 4 C14.33 13.24 14.66 22.48 15 32 C15.99 32 16.98 32 18 32 C18 32.66 18 33.32 18 34 C14.37 34 10.74 34 7 34 C7 33.34 7 32.68 7 32 C7.66 32 8.32 32 9 32 C9.33 22.76 9.66 13.52 10 4 C7.03 4 4.06 4 1 4 C0.67 4.99 0.34 5.98 0 7 C-0.33 7 -0.66 7 -1 7 C-0.67 4.69 -0.34 2.38 0 0 Z " fill="#000000" transform="translate(290,284)"/>
<path d="M0 0 C5.28 0 10.56 0 16 0 C16 1.98 16 3.96 16 6 C15.34 6 14.68 6 14 6 C14 5.34 14 4.68 14 4 C11.69 4 9.38 4 7 4 C7 6.64 7 9.28 7 12 C11.455 11.505 11.455 11.505 16 11 C15.67 13.31 15.34 15.62 15 18 C14.34 18 13.68 18 13 18 C13 17.34 13 16.68 13 16 C10.03 15.505 10.03 15.505 7 15 C7.33 18.3 7.66 21.6 8 25 C9.98 25 11.96 25 14 25 C14.33 24.34 14.66 23.68 15 23 C15.66 23 16.32 23 17 23 C17 24.98 17 26.96 17 29 C11.72 29 6.44 29 1 29 C1 28.34 1 27.68 1 27 C1.66 27 2.32 27 3 27 C2.67 19.08 2.34 11.16 2 3 C1.34 2.67 0.68 2.34 0 2 C0 1.34 0 0.68 0 0 Z " fill="#000000" transform="translate(272,240)"/>
<path d="M0 0 C5.28 0 10.56 0 16 0 C16 1.98 16 3.96 16 6 C15.34 6 14.68 6 14 6 C14 5.34 14 4.68 14 4 C11.69 4 9.38 4 7 4 C7 6.64 7 9.28 7 12 C9.64 11.67 12.28 11.34 15 11 C15.93423645 14.01031744 16.04449911 14.86650268 15 18 C14.34 18 13.68 18 13 18 C13 17.34 13 16.68 13 16 C10.03 15.505 10.03 15.505 7 15 C7.33 18.3 7.66 21.6 8 25 C10.31 25.33 12.62 25.66 15 26 C15 25.01 15 24.02 15 23 C15.66 23 16.32 23 17 23 C17.042721 24.66611905 17.04063832 26.33382885 17 28 C16 29 16 29 12.40234375 29.09765625 C10.91403133 29.0909822 9.42573568 29.07902183 7.9375 29.0625 C7.17888672 29.05798828 6.42027344 29.05347656 5.63867188 29.04882812 C3.75908129 29.0370068 1.87953101 29.01907078 0 29 C0 28.34 0 27.68 0 27 C0.99 27 1.98 27 3 27 C2.67 19.08 2.34 11.16 2 3 C1.34 2.67 0.68 2.34 0 2 C0 1.34 0 0.68 0 0 Z " fill="#000000" transform="translate(528,240)"/>
<path d="M0 0 C0 1.98 0 3.96 0 6 C-0.99 6.495 -0.99 6.495 -2 7 C-2.33 6.34 -2.66 5.68 -3 5 C-6.02934491 4.34227572 -6.02934491 4.34227572 -9 4 C-9 6.97 -9 9.94 -9 13 C-4.545 12.505 -4.545 12.505 0 12 C-0.33 14.31 -0.66 16.62 -1 19 C-1.66 19 -2.32 19 -3 19 C-3 18.01 -3 17.02 -3 16 C-4.98 16 -6.96 16 -9 16 C-8.67 18.97 -8.34 21.94 -8 25 C-4.52852158 25.74957157 -4.52852158 25.74957157 -1 26 C-1 25.01 -1 24.02 -1 23 C-0.34 23 0.32 23 1 23 C0.67 25.31 0.34 27.62 0 30 C-5.28 29.67 -10.56 29.34 -16 29 C-15.67 28.34 -15.34 27.68 -15 27 C-14.34 27 -13.68 27 -13 27 C-13 19.08 -13 11.16 -13 3 C-13.99 3 -14.98 3 -16 3 C-16 2.34 -16 1.68 -16 1 C-13.52085964 0.83293398 -11.04168987 0.66632824 -8.5625 0.5 C-7.85544922 0.45230469 -7.14839844 0.40460938 -6.41992188 0.35546875 C-1.11328125 0 -1.11328125 0 0 0 Z " fill="#000000" transform="translate(334,289)"/>
<path d="M0 0 C2.97 0 5.94 0 9 0 C9.33 1.32 9.66 2.64 10 4 C10.515625 5.03125 11.03125 6.0625 11.5625 7.125 C13 10 13 10 13 12 C13.66 12 14.32 12 15 12 C15.28875 11.13375 15.5775 10.2675 15.875 9.375 C16.91666667 6.25 17.95833333 3.125 19 0 C21.31 0 23.62 0 26 0 C26 0.66 26 1.32 26 2 C25.2575 2.721875 24.515 3.44375 23.75 4.1875 C17.08157078 11.00748443 16.30543326 16.69955715 16 26 C16.99 26 17.98 26 19 26 C19 26.66 19 27.32 19 28 C15.7 28 12.4 28 9 28 C9 27.34 9 26.68 9 26 C9.66 26 10.32 26 11 26 C11.1245723 16.95961056 8.5095548 10.19369819 3 3 C2.01 2.67 1.02 2.34 0 2 C0 1.34 0 0.68 0 0 Z " fill="#000000" transform="translate(543,290)"/>
<path d="M0 0 C5.61 0 11.22 0 17 0 C17 1.98 17 3.96 17 6 C13.7 5.34 10.4 4.68 7 4 C7 6.64 7 9.28 7 12 C11.455 11.505 11.455 11.505 16 11 C15.67 13.31 15.34 15.62 15 18 C14.67 17.34 14.34 16.68 14 16 C11.67843403 15.59270772 9.3431213 15.25561323 7 15 C7.33 18.96 7.66 22.92 8 27 C8.99 27 9.98 27 11 27 C11 27.66 11 28.32 11 29 C7.7 29 4.4 29 1 29 C1.33 28.01 1.66 27.02 2 26 C2.08209792 24.22686149 2.10746294 22.45079225 2.09765625 20.67578125 C2.09443359 19.64775391 2.09121094 18.61972656 2.08789062 17.56054688 C2.07951172 16.48869141 2.07113281 15.41683594 2.0625 14.3125 C2.05798828 13.22904297 2.05347656 12.14558594 2.04882812 11.02929688 C2.03703743 8.35280915 2.02058063 5.67643223 2 3 C1.34 2.67 0.68 2.34 0 2 C0 1.34 0 0.68 0 0 Z " fill="#000000" transform="translate(338,240)"/>
<path d="M0 0 C1.23556641 0.01740234 1.23556641 0.01740234 2.49609375 0.03515625 C3.32238281 0.04417969 4.14867187 0.05320312 5 0.0625 C5.63808594 0.07410156 6.27617187 0.08570313 6.93359375 0.09765625 C6.60359375 1.08765625 6.27359375 2.07765625 5.93359375 3.09765625 C5.78523427 4.869326 5.68589357 6.64533237 5.6171875 8.421875 C5.57529297 9.44990234 5.53339844 10.47792969 5.49023438 11.53710938 C5.45091797 12.60896484 5.41160156 13.68082031 5.37109375 14.78515625 C5.32791016 15.86861328 5.28472656 16.95207031 5.24023438 18.06835938 C5.13412537 20.74466416 5.03207014 23.42106151 4.93359375 26.09765625 C7.57359375 26.09765625 10.21359375 26.09765625 12.93359375 26.09765625 C13.26359375 25.10765625 13.59359375 24.11765625 13.93359375 23.09765625 C14.59359375 23.09765625 15.25359375 23.09765625 15.93359375 23.09765625 C15.60359375 25.07765625 15.27359375 27.05765625 14.93359375 29.09765625 C9.32359375 29.09765625 3.71359375 29.09765625 -2.06640625 29.09765625 C-2.06640625 28.43765625 -2.06640625 27.77765625 -2.06640625 27.09765625 C-1.40640625 27.09765625 -0.74640625 27.09765625 -0.06640625 27.09765625 C-0.17590649 23.13873305 -0.30662293 19.18079299 -0.44140625 15.22265625 C-0.4878125 13.53076172 -0.4878125 13.53076172 -0.53515625 11.8046875 C-0.57382812 10.72832031 -0.6125 9.65195312 -0.65234375 8.54296875 C-0.68376465 7.54797363 -0.71518555 6.55297852 -0.74755859 5.52783203 C-0.83887708 2.91911108 -0.83887708 2.91911108 -3.06640625 1.09765625 C-2.06640625 0.09765625 -2.06640625 0.09765625 0 0 Z " fill="#000000" transform="translate(388.06640625,338.90234375)"/>
<path d="M0 0 C3.3 0 6.6 0 10 0 C10 0.66 10 1.32 10 2 C9.01 2.495 9.01 2.495 8 3 C7.67 10.59 7.34 18.18 7 26 C10.96 25.505 10.96 25.505 15 25 C15.33 24.34 15.66 23.68 16 23 C16.66 23 17.32 23 18 23 C17.67 24.98 17.34 26.96 17 29 C11.39 29 5.78 29 0 29 C0 28.34 0 27.68 0 27 C0.66 27 1.32 27 2 27 C2 18.75 2 10.5 2 2 C1.34 2 0.68 2 0 2 C0 1.34 0 0.68 0 0 Z " fill="#000000" transform="translate(179,240)"/>
<path d="M0 0 C3.3 0 6.6 0 10 0 C10 0.66 10 1.32 10 2 C9.01 2.495 9.01 2.495 8 3 C7.97096423 6.10414702 7.9531893 9.20825909 7.9375 12.3125 C7.92912109 13.19357422 7.92074219 14.07464844 7.91210938 14.98242188 C7.90727539 16.25375977 7.90727539 16.25375977 7.90234375 17.55078125 C7.89710693 18.33106689 7.89187012 19.11135254 7.88647461 19.9152832 C7.91862137 22.1961555 7.91862137 22.1961555 9 25 C11.31 25 13.62 25 16 25 C16 24.01 16 23.02 16 22 C16.66 22 17.32 22 18 22 C18.04254356 23.99954746 18.04080783 26.00041636 18 28 C17.67 28.33 17.34 28.66 17 29 C14.13311752 28.90903444 11.29699485 28.76232012 8.4375 28.5625 C7.63119141 28.51029297 6.82488281 28.45808594 5.99414062 28.40429688 C3.99578262 28.27422624 1.99784614 28.13770944 0 28 C0 27.34 0 26.68 0 26 C0.66 26 1.32 26 2 26 C2 18.41 2 10.82 2 3 C1.34 2.67 0.68 2.34 0 2 C0 1.34 0 0.68 0 0 Z " fill="#000000" transform="translate(465,290)"/>
<path d="M0 0 C1.23556641 0.01740234 1.23556641 0.01740234 2.49609375 0.03515625 C3.32238281 0.04417969 4.14867187 0.05320313 5 0.0625 C5.63808594 0.07410156 6.27617187 0.08570313 6.93359375 0.09765625 C7.26359375 0.75765625 7.59359375 1.41765625 7.93359375 2.09765625 C6.94359375 2.59265625 6.94359375 2.59265625 5.93359375 3.09765625 C5.93359375 10.35765625 5.93359375 17.61765625 5.93359375 25.09765625 C8.24359375 25.09765625 10.55359375 25.09765625 12.93359375 25.09765625 C13.26359375 24.43765625 13.59359375 23.77765625 13.93359375 23.09765625 C14.59359375 23.09765625 15.25359375 23.09765625 15.93359375 23.09765625 C15.60359375 25.07765625 15.27359375 27.05765625 14.93359375 29.09765625 C9.32359375 29.09765625 3.71359375 29.09765625 -2.06640625 29.09765625 C-2.06640625 28.43765625 -2.06640625 27.77765625 -2.06640625 27.09765625 C-1.40640625 27.09765625 -0.74640625 27.09765625 -0.06640625 27.09765625 C-0.06640625 18.84765625 -0.06640625 10.59765625 -0.06640625 2.09765625 C-1.05640625 1.76765625 -2.04640625 1.43765625 -3.06640625 1.09765625 C-2.06640625 0.09765625 -2.06640625 0.09765625 0 0 Z " fill="#000000" transform="translate(202.06640625,239.90234375)"/>
<path d="M0 0 C2.54393252 3.81589878 2.57737956 6.5299647 2 11 C0.9375 13 0.9375 13 -1 14 C-6.98713826 14.6414791 -6.98713826 14.6414791 -9.875 12.8125 C-11.36816938 10.40683822 -11.8675026 8.84869415 -12 6 C-10.75 2.75 -10.75 2.75 -9 0 C-5.46474216 -1.17841928 -3.5797952 -0.91399027 0 0 Z " fill="#000000" transform="translate(213,205)"/>
<path d="M0 0 C2.97 0 5.94 0 9 0 C8.67 0.99 8.34 1.98 8 3 C7.85110253 4.84466442 7.7520899 6.69357275 7.68359375 8.54296875 C7.64169922 9.61611328 7.59980469 10.68925781 7.55664062 11.79492188 C7.49766602 13.47424805 7.49766602 13.47424805 7.4375 15.1875 C7.39431641 16.31865234 7.35113281 17.44980469 7.30664062 18.61523438 C7.20050901 21.41003354 7.09845615 24.20492162 7 27 C7.99 27 8.98 27 10 27 C10 27.66 10 28.32 10 29 C6.7 29 3.4 29 0 29 C0 28.34 0 27.68 0 27 C0.66 27 1.32 27 2 27 C1.8612922 23.06221489 1.71281508 19.12485777 1.5625 15.1875 C1.52318359 14.06794922 1.48386719 12.94839844 1.44335938 11.79492188 C1.40146484 10.72177734 1.35957031 9.64863281 1.31640625 8.54296875 C1.27974854 7.55321045 1.24309082 6.56345215 1.20532227 5.54370117 C1.09209669 2.8781649 1.09209669 2.8781649 0 0 Z " fill="#000000" transform="translate(457,339)"/>
<path d="M0 0 C2.97 0 5.94 0 9 0 C9 0.66 9 1.32 9 2 C8.34 2 7.68 2 7 2 C7 10.25 7 18.5 7 27 C7.99 27 8.98 27 10 27 C10 27.66 10 28.32 10 29 C6.7 29 3.4 29 0 29 C0 28.34 0 27.68 0 27 C0.66 27 1.32 27 2 27 C1.8612922 23.06221489 1.71281508 19.12485777 1.5625 15.1875 C1.52318359 14.06794922 1.48386719 12.94839844 1.44335938 11.79492188 C1.40146484 10.72177734 1.35957031 9.64863281 1.31640625 8.54296875 C1.27974854 7.55321045 1.24309082 6.56345215 1.20532227 5.54370117 C1.09209669 2.8781649 1.09209669 2.8781649 0 0 Z " fill="#000000" transform="translate(459,240)"/>
<path d="M0 0 C4.29 0 8.58 0 13 0 C13 0.99 13 1.98 13 3 C8.71 3.66 4.42 4.32 0 5 C0 3.35 0 1.7 0 0 Z " fill="#000000" transform="translate(483,353)"/>
<path d="M0 0 C4.29 0 8.58 0 13 0 C12.67 0.99 12.34 1.98 12 3 C7.71 3.66 3.42 4.32 -1 5 C-0.67 3.35 -0.34 1.7 0 0 Z " fill="#000000" transform="translate(281,353)"/>
<path d="M0 0 C2.0625 0.4375 2.0625 0.4375 4 1 C3.38461538 7.52307692 3.38461538 7.52307692 1.4375 9.9375 C0.963125 10.288125 0.48875 10.63875 0 11 C-1.16461426 7.50615721 -1.13568319 4.66344611 -1 1 C-0.67 0.67 -0.34 0.34 0 0 Z " fill="#000000" transform="translate(571,312)"/>
</svg>
