<svg width="712" height="470" viewBox="0 0 712 470" fill="none" xmlns="http://www.w3.org/2000/svg">
<path d="M3.12109 213.59C41.885 206.378 73.4356 178.148 111.542 167.085C183.834 146.097 276.497 176.102 332.168 113.551C348.28 95.4476 386.8 24.1041 350.283 3.23743C347.883 1.86577 344.157 3.77254 342.442 5.94118C327.766 24.503 322.382 48.8101 311.89 70.0202C284.563 125.262 254.627 183.126 215.095 230.894C172.19 282.737 162.57 203.029 160.48 171.411C160.188 166.993 155.121 98.0827 170.213 97.3281C193.117 96.1829 238.458 210.26 239.97 213.319C269.511 273.072 287.671 311.83 318.92 370.678C329.893 391.344 340.75 412.109 352.987 432.053C361.188 445.419 377.097 476.613 387.054 464.498C392.764 457.552 401.9 344.462 403.277 345.533C415.472 355.018 412.464 405.296 429.233 406.638C455.393 408.731 442.801 308.857 453.837 296.595C455.766 294.451 466.222 336.328 476.278 324.444C485.357 313.714 496.354 236.026 509.805 255.768C517.54 267.122 539.601 328.629 557.12 326.877C574.327 325.156 566.21 206.375 591.458 219.267C611.491 229.497 642.825 330.941 672.571 315.251C705.334 297.969 704.115 202.595 708.801 169.789" stroke="white" stroke-width="5.17196" stroke-linecap="round"/>
</svg>
