<svg width="1080" height="1080" viewBox="0 0 1080 1080" fill="none" xmlns="http://www.w3.org/2000/svg">
<g filter="url(#filter0_if_877_2)">
<path d="M278.789 348.231C258.05 348.231 242.429 343.112 231.928 332.873C221.427 322.635 216.177 306.621 216.177 284.831V188.747H187.43V143.461H216.177V102.114L269.338 96.6007V143.461H312.655V188.747H269.338V282.075C269.338 294.676 274.851 300.977 285.877 300.977H307.929V348.231H278.789Z" fill="#E22726"/>
<path d="M415.218 353.35C394.479 353.35 376.102 348.625 360.088 339.174C344.074 329.461 331.604 316.466 322.678 300.189C313.752 283.913 309.289 265.93 309.289 246.24C309.289 226.813 313.883 208.83 323.072 192.291C332.26 175.752 344.861 162.626 360.875 152.912C377.152 143.199 395.266 138.342 415.218 138.342C435.17 138.342 453.022 143.199 468.773 152.912C484.787 162.626 497.126 175.752 505.789 192.291C514.715 208.568 519.178 226.551 519.178 246.24C519.178 252.803 518.653 259.104 517.603 265.142H364.42C367.57 277.481 373.477 287.457 382.14 295.07C391.066 302.421 402.092 306.096 415.218 306.096C426.244 306.096 436.089 303.602 444.752 298.614C453.416 293.363 460.241 286.669 465.229 278.531L506.577 309.64C498.176 322.766 485.837 333.399 469.561 341.537C453.284 349.413 435.17 353.35 415.218 353.35ZM465.623 225.369C462.473 213.556 456.303 203.711 447.115 195.835C437.927 187.96 427.032 184.022 414.431 184.022C402.092 184.022 391.328 187.828 382.14 195.441C373.214 203.055 367.307 213.031 364.42 225.369H465.623Z" fill="#E22726"/>
<path d="M625.276 353.35C606.9 353.35 589.967 348.625 574.478 339.174C558.989 329.461 546.65 316.466 537.462 300.189C528.536 283.913 524.073 266.061 524.073 246.634C524.073 227.207 528.536 209.355 537.462 193.079C546.65 176.54 558.989 163.413 574.478 153.7C589.967 143.987 606.9 139.13 625.276 139.13C642.078 139.13 655.598 142.28 665.837 148.581C676.075 154.619 684.082 163.413 689.858 174.965V60.766L743.019 16V347.475H691.433V314.759C685.395 327.098 677.125 336.68 666.624 343.506C656.386 350.069 642.603 353.35 625.276 353.35ZM577.234 246.24C577.234 256.741 579.597 266.586 584.322 275.774C589.31 284.7 596.005 291.92 604.406 297.433C613.069 302.683 622.914 305.308 633.94 305.308C645.228 305.308 655.204 302.683 663.868 297.433C672.793 292.182 679.619 285.094 684.345 276.168C689.07 267.242 691.433 257.397 691.433 246.634C691.433 235.87 689.07 226.026 684.345 217.1C679.619 207.911 672.793 200.692 663.868 195.441C655.204 189.928 645.228 187.172 633.94 187.172C622.914 187.172 613.069 189.928 604.406 195.441C595.742 200.692 589.048 207.78 584.322 216.706C579.597 225.632 577.234 235.477 577.234 246.24Z" fill="#E22726"/>
<path d="M823.829 245.846L750.978 143.461H814.378L856.119 208.437L899.436 143.461H961.654L888.804 246.634L965.592 348.231H901.011L856.513 282.862L810.44 348.231H747.04L823.829 245.846Z" fill="#E22726"/>
<path d="M111.058 592.497C76.6674 592.497 48.3147 580.552 26 556.662L61.8347 523.978C76.7986 540.779 92.8127 549.18 109.877 549.18C118.803 549.18 125.76 547.211 130.748 543.273C135.736 539.335 138.23 534.216 138.23 527.915C138.23 522.14 135.736 517.677 130.748 514.527C126.022 511.114 116.046 507.57 100.82 503.894C75.8798 497.856 59.0782 489.587 50.4149 479.086C42.014 468.585 37.8136 455.59 37.8136 440.101C37.8136 421.724 44.6393 406.76 58.2906 395.209C71.9419 383.395 90.5812 377.488 114.208 377.488C131.273 377.488 145.58 380.114 157.131 385.364C168.945 390.615 179.971 399.803 190.21 412.929L151.618 442.464C142.43 427.762 130.354 420.411 115.39 420.411C107.777 420.411 101.607 421.987 96.8818 425.137C92.1564 428.025 89.7936 432.488 89.7936 438.526C89.7936 442.726 91.5001 446.401 94.9129 449.552C98.5882 452.439 106.07 455.327 117.359 458.215C145.449 465.566 164.613 474.623 174.852 485.386C185.353 496.15 190.603 509.801 190.603 526.34C190.603 538.679 187.059 549.968 179.971 560.206C173.145 570.182 163.695 578.058 151.618 583.833C139.542 589.609 126.022 592.497 111.058 592.497Z" fill="#E22726"/>
<path d="M96.8818 618.88H186.908C197.935 618.88 203.448 612.58 203.448 599.979V382.608H256.609V602.735C256.609 624.525 251.358 640.539 240.857 650.777C230.356 661.016 214.736 666.135 193.997 666.135H50.4149L96.8818 618.88Z" fill="#E22726"/>
<path d="M377.834 592.497C358.67 592.497 340.949 587.771 324.673 578.32C308.659 568.607 295.926 555.481 286.475 538.942C277.024 522.402 272.299 504.419 272.299 484.993C272.299 465.303 277.024 447.32 286.475 431.044C295.926 414.505 309.052 401.51 325.854 392.059C342.656 382.345 361.426 377.488 382.166 377.488C400.28 377.488 416.557 380.901 430.995 387.727C445.434 394.29 456.985 403.61 465.649 415.686L424.695 449.158C419.969 442.07 413.8 436.425 406.187 432.225C398.574 428.025 390.304 425.924 381.378 425.924C370.352 425.924 360.639 428.681 352.238 434.194C343.837 439.444 337.274 446.533 332.548 455.459C327.823 464.384 325.46 474.229 325.46 484.993C325.46 495.494 327.823 505.338 332.548 514.527C337.536 523.453 344.362 530.672 353.025 536.185C361.689 541.436 371.534 544.061 382.56 544.061C392.273 544.061 400.674 541.961 407.762 537.76C414.85 533.56 421.282 527.522 427.058 519.646L465.649 553.118C445.172 579.37 415.9 592.497 377.834 592.497Z" fill="#E22726"/>
<path d="M563.785 592.497C543.046 592.497 524.669 587.771 508.655 578.32C492.641 568.607 480.171 555.612 471.245 539.335C462.319 523.059 457.856 505.076 457.856 485.386C457.856 465.96 462.45 447.977 471.639 431.437C480.827 414.898 493.428 401.772 509.442 392.059C525.719 382.345 543.833 377.488 563.785 377.488C583.737 377.488 601.589 382.345 617.34 392.059C633.354 401.772 645.693 414.898 654.356 431.437C663.282 447.714 667.745 465.697 667.745 485.386C667.745 491.95 667.22 498.25 666.17 504.288H512.986C516.137 516.627 522.044 526.603 530.707 534.216C539.633 541.567 550.659 545.242 563.785 545.242C574.811 545.242 584.656 542.748 593.319 537.76C601.983 532.51 608.808 525.815 613.796 517.677L655.144 548.786C646.743 561.913 634.404 572.545 618.128 580.683C601.851 588.559 583.737 592.497 563.785 592.497ZM614.19 464.516C611.04 452.702 604.87 442.857 595.682 434.982C586.494 427.106 575.599 423.168 562.997 423.168C550.659 423.168 539.895 426.975 530.707 434.588C521.781 442.201 515.874 452.177 512.986 464.516H614.19Z" fill="#E22726"/>
<path d="M753.093 587.377C732.353 587.377 716.733 582.258 706.232 572.02C695.731 561.781 690.48 545.767 690.48 523.978V427.893H661.734V382.608H690.48L691.433 347.475H743.019L743.642 382.608H786.958V427.893H743.642V521.221C743.642 533.822 749.155 540.123 760.181 540.123H856.513L891.163 587.377H753.093Z" fill="#E22726"/>
<path d="M135.727 618.727L186.908 618.88L188.101 651.805C194.139 639.729 202.277 630.54 212.515 624.24C222.754 617.677 236.405 614.395 253.469 614.395C271.846 614.395 288.779 619.252 304.268 628.965C319.757 638.679 331.964 651.805 340.89 668.344C350.079 684.621 354.673 702.472 354.673 721.899C354.673 741.326 350.079 759.178 340.89 775.454C331.964 791.731 319.757 804.726 304.268 814.439C288.779 823.89 271.846 828.616 253.469 828.616C236.93 828.616 223.41 825.597 212.909 819.559C202.671 813.258 194.664 804.463 188.888 793.175V902.254L135.727 940.8V618.727ZM187.313 721.899C187.313 732.663 189.676 742.508 194.401 751.433C199.127 760.359 205.821 767.447 214.484 772.698C223.41 777.948 233.517 780.574 244.806 780.574C255.832 780.574 265.546 777.948 273.946 772.698C282.61 767.185 289.304 759.965 294.03 751.04C299.018 741.851 301.511 732.006 301.511 721.505C301.511 710.742 299.149 700.897 294.423 691.971C289.698 683.046 283.003 675.957 274.34 670.707C265.677 665.194 255.832 662.437 244.806 662.437C233.517 662.437 223.41 665.194 214.484 670.707C205.821 675.957 199.127 683.177 194.401 692.365C189.676 701.291 187.313 711.136 187.313 721.899Z" fill="#E22726"/>
<path d="M461.912 828.616C443.536 828.616 426.603 823.89 411.114 814.439C395.625 804.726 383.286 791.731 374.098 775.454C365.172 759.178 360.709 741.326 360.709 721.899C360.709 702.472 365.172 684.621 374.098 668.344C383.286 651.805 395.625 638.679 411.114 628.965C426.603 619.252 443.536 614.395 461.912 614.395C478.714 614.395 492.234 617.545 502.473 623.846C512.974 630.147 521.112 639.204 526.887 651.017V618.727H579.655V823.497H528.069V790.025C522.031 802.363 513.761 811.945 503.26 818.771C493.022 825.334 479.239 828.616 461.912 828.616ZM413.87 721.505C413.87 732.006 416.233 741.851 420.958 751.04C425.946 759.965 432.641 767.185 441.042 772.698C449.705 777.948 459.55 780.574 470.576 780.574C481.864 780.574 491.84 777.948 500.504 772.698C509.429 767.447 516.255 760.359 520.981 751.433C525.706 742.508 528.069 732.663 528.069 721.899C528.069 711.136 525.706 701.291 520.981 692.365C516.255 683.177 509.429 675.957 500.504 670.707C491.84 665.194 481.864 662.437 470.576 662.437C459.55 662.437 449.705 665.194 441.042 670.707C432.378 675.957 425.684 683.046 420.958 691.971C416.233 700.897 413.87 710.742 413.87 721.505Z" fill="#E22726"/>
<path d="M603.365 536.031L655.144 548.786L656.527 823.497H603.365V536.031Z" fill="#E22726"/>
<path d="M773.42 828.616C755.043 828.616 738.111 823.89 722.622 814.439C707.133 804.726 694.794 791.731 685.605 775.454C676.68 759.178 672.217 741.326 672.217 721.899C672.217 702.472 676.68 684.621 685.605 668.344C694.794 651.805 707.133 638.679 722.622 628.965C738.111 619.252 755.043 614.395 773.42 614.395C790.222 614.395 803.742 617.545 813.98 623.846C824.481 630.147 832.62 639.204 838.395 651.017V618.727H891.163V823.497H839.577V790.025C833.538 802.363 825.269 811.945 814.768 818.771C804.529 825.334 790.747 828.616 773.42 828.616ZM725.378 721.505C725.378 732.006 727.741 741.851 732.466 751.04C737.454 759.965 744.149 767.185 752.549 772.698C761.213 777.948 771.057 780.574 782.084 780.574C793.372 780.574 803.348 777.948 812.011 772.698C820.937 767.447 827.763 760.359 832.488 751.433C837.214 742.508 839.577 732.663 839.577 721.899C839.577 711.136 837.214 701.291 832.488 692.365C827.763 683.177 820.937 675.957 812.011 670.707C803.348 665.194 793.372 662.437 782.084 662.437C771.057 662.437 761.213 665.194 752.549 670.707C743.886 675.957 737.192 683.046 732.466 691.971C727.741 700.897 725.378 710.742 725.378 721.505Z" fill="#E22726"/>
<path d="M914.873 618.727H968.035V823.497H914.873V618.727ZM909.36 570.291C909.36 561.628 912.379 554.277 918.417 548.239C924.718 542.201 932.331 539.182 941.257 539.182C950.445 539.182 958.059 542.201 964.097 548.239C970.135 554.277 973.154 561.628 973.154 570.291C973.154 579.217 970.135 586.699 964.097 592.737C958.059 598.775 950.445 601.794 941.257 601.794C932.331 601.794 924.718 598.775 918.417 592.737C912.379 586.436 909.36 578.954 909.36 570.291Z" fill="#E22726"/>
<path d="M1019.95 828.616C1009.98 828.616 1001.58 825.203 994.75 818.377C987.925 811.552 984.512 803.413 984.512 793.963C984.512 784.512 987.925 776.505 994.75 769.941C1001.58 763.116 1009.98 759.703 1019.95 759.703C1029.93 759.703 1038.2 763.116 1044.76 769.941C1051.59 776.505 1055 784.512 1055 793.963C1055 803.676 1051.59 811.945 1044.76 818.771C1038.2 825.334 1029.93 828.616 1019.95 828.616Z" fill="#E22726"/>
</g>
<path d="M209.86 898.638H219.739L230.17 914.623L240.728 898.638L250.014 898.85L234.707 920.771L250.693 944.05H240.94L229.661 927.004L218.722 944.05H209.054L225.04 920.771L209.86 898.638Z" fill="#E22726"/>
<path d="M324.302 909.196V916.319H280.077V909.196H324.302ZM324.302 927.386V934.637H280.077V927.386H324.302ZM356.654 898.85H364.413V944.05H356.654V898.85ZM356.654 881.762H364.413V890.412H356.654V881.762ZM375.989 898.638H383.24V905.083C385.388 902.426 387.664 900.518 390.066 899.359C392.469 898.2 395.14 897.62 398.08 897.62C404.525 897.62 408.878 899.867 411.14 904.362C412.384 906.821 413.005 910.341 413.005 914.92V944.05H405.246V915.429C405.246 912.659 404.836 910.425 404.016 908.729C402.66 905.903 400.2 904.489 396.639 904.489C394.829 904.489 393.345 904.673 392.186 905.04C390.095 905.662 388.257 906.906 386.674 908.772C385.402 910.27 384.568 911.825 384.172 913.436C383.805 915.019 383.621 917.294 383.621 920.263V944.05H375.989V898.638ZM429.16 921.874C429.16 926.736 430.192 930.806 432.256 934.085C434.319 937.365 437.627 939.004 442.178 939.004C445.711 939.004 448.609 937.492 450.87 934.467C453.16 931.414 454.305 927.047 454.305 921.365C454.305 915.627 453.131 911.387 450.785 908.645C448.439 905.874 445.542 904.489 442.093 904.489C438.248 904.489 435.125 905.959 432.722 908.899C430.348 911.839 429.16 916.164 429.16 921.874ZM440.651 897.832C444.128 897.832 447.04 898.567 449.386 900.037C450.743 900.885 452.283 902.369 454.008 904.489V881.55H461.343V944.05H454.474V937.732C452.693 940.53 450.587 942.552 448.156 943.795C445.725 945.039 442.941 945.661 439.803 945.661C434.743 945.661 430.362 943.541 426.659 939.301C422.956 935.032 421.104 929.365 421.104 922.298C421.104 915.683 422.786 909.959 426.15 905.125C429.542 900.263 434.376 897.832 440.651 897.832ZM491.575 897.62C494.798 897.62 497.922 898.383 500.946 899.91C503.971 901.408 506.275 903.359 507.858 905.761C509.384 908.051 510.402 910.722 510.91 913.775C511.363 915.867 511.589 919.203 511.589 923.782H478.304C478.445 928.39 479.533 932.093 481.569 934.891C483.604 937.661 486.756 939.046 491.024 939.046C495.01 939.046 498.19 937.732 500.565 935.103C501.921 933.577 502.882 931.81 503.448 929.803H510.953C510.755 931.471 510.091 933.336 508.96 935.4C507.858 937.435 506.614 939.103 505.229 940.403C502.911 942.665 500.042 944.191 496.621 944.983C494.784 945.435 492.706 945.661 490.388 945.661C484.735 945.661 479.943 943.612 476.014 939.513C472.085 935.386 470.12 929.619 470.12 922.213C470.12 914.92 472.099 908.998 476.056 904.447C480.014 899.896 485.187 897.62 491.575 897.62ZM503.745 917.718C503.434 914.411 502.713 911.768 501.582 909.789C499.49 906.115 495.999 904.277 491.109 904.277C487.604 904.277 484.664 905.549 482.289 908.093C479.915 910.609 478.657 913.818 478.516 917.718H503.745ZM540.168 938.919C543.729 938.919 546.683 937.435 549.029 934.467C551.404 931.471 552.591 927.004 552.591 921.068C552.591 917.45 552.068 914.34 551.022 911.74C549.044 906.736 545.425 904.235 540.168 904.235C534.881 904.235 531.263 906.878 529.313 912.164C528.267 914.991 527.744 918.581 527.744 922.934C527.744 926.439 528.267 929.421 529.313 931.881C531.291 936.573 534.91 938.919 540.168 938.919ZM520.408 898.85H527.829V904.871C529.355 902.807 531.023 901.21 532.832 900.079C535.404 898.383 538.429 897.535 541.906 897.535C547.051 897.535 551.418 899.514 555.008 903.472C558.598 907.401 560.393 913.026 560.393 920.347C560.393 930.241 557.807 937.308 552.634 941.548C549.355 944.234 545.538 945.576 541.185 945.576C537.765 945.576 534.896 944.827 532.578 943.329C531.221 942.481 529.708 941.025 528.041 938.962V962.155H520.408V898.85ZM588.251 897.62C591.473 897.62 594.597 898.383 597.622 899.91C600.646 901.408 602.95 903.359 604.533 905.761C606.059 908.051 607.077 910.722 607.586 913.775C608.038 915.867 608.264 919.203 608.264 923.782H574.979C575.121 928.39 576.209 932.093 578.244 934.891C580.279 937.661 583.431 939.046 587.7 939.046C591.685 939.046 594.865 937.732 597.24 935.103C598.597 933.577 599.558 931.81 600.123 929.803H607.628C607.43 931.471 606.766 933.336 605.635 935.4C604.533 937.435 603.289 939.103 601.904 940.403C599.586 942.665 596.717 944.191 593.297 944.983C591.459 945.435 589.382 945.661 587.064 945.661C581.41 945.661 576.619 943.612 572.689 939.513C568.76 935.386 566.796 929.619 566.796 922.213C566.796 914.92 568.774 908.998 572.732 904.447C576.689 899.896 581.862 897.62 588.251 897.62ZM600.42 917.718C600.109 914.411 599.388 911.768 598.258 909.789C596.166 906.115 592.675 904.277 587.784 904.277C584.279 904.277 581.339 905.549 578.965 908.093C576.59 910.609 575.333 913.818 575.191 917.718H600.42ZM617.677 898.638H624.928V905.083C627.076 902.426 629.352 900.518 631.755 899.359C634.157 898.2 636.829 897.62 639.769 897.62C646.214 897.62 650.567 899.867 652.828 904.362C654.072 906.821 654.694 910.341 654.694 914.92V944.05H646.934V915.429C646.934 912.659 646.525 910.425 645.705 908.729C644.348 905.903 641.889 904.489 638.327 904.489C636.518 904.489 635.034 904.673 633.875 905.04C631.783 905.662 629.946 906.906 628.363 908.772C627.091 910.27 626.257 911.825 625.861 913.436C625.493 915.019 625.31 917.294 625.31 920.263V944.05H617.677V898.638ZM670.849 921.874C670.849 926.736 671.881 930.806 673.944 934.085C676.008 937.365 679.315 939.004 683.866 939.004C687.4 939.004 690.297 937.492 692.558 934.467C694.848 931.414 695.993 927.047 695.993 921.365C695.993 915.627 694.82 911.387 692.474 908.645C690.127 905.874 687.23 904.489 683.781 904.489C679.937 904.489 676.813 905.959 674.411 908.899C672.036 911.839 670.849 916.164 670.849 921.874ZM682.34 897.832C685.817 897.832 688.728 898.567 691.074 900.037C692.431 900.885 693.972 902.369 695.696 904.489V881.55H703.032V944.05H696.163V937.732C694.382 940.53 692.276 942.552 689.845 943.795C687.414 945.039 684.629 945.661 681.492 945.661C676.432 945.661 672.05 943.541 668.347 939.301C664.644 935.032 662.793 929.365 662.793 922.298C662.793 915.683 664.475 909.959 667.838 905.125C671.231 900.263 676.064 897.832 682.34 897.832ZM733.264 897.62C736.486 897.62 739.61 898.383 742.635 899.91C745.659 901.408 747.963 903.359 749.546 905.761C751.073 908.051 752.09 910.722 752.599 913.775C753.051 915.867 753.277 919.203 753.277 923.782H719.992C720.134 928.39 721.222 932.093 723.257 934.891C725.292 937.661 728.444 939.046 732.713 939.046C736.698 939.046 739.879 937.732 742.253 935.103C743.61 933.577 744.571 931.81 745.136 929.803H752.641C752.444 931.471 751.779 933.336 750.649 935.4C749.546 937.435 748.302 939.103 746.917 940.403C744.599 942.665 741.73 944.191 738.31 944.983C736.472 945.435 734.395 945.661 732.077 945.661C726.423 945.661 721.632 943.612 717.703 939.513C713.773 935.386 711.809 929.619 711.809 922.213C711.809 914.92 713.788 908.998 717.745 904.447C721.702 899.896 726.875 897.62 733.264 897.62ZM745.433 917.718C745.122 914.411 744.401 911.768 743.271 909.789C741.179 906.115 737.688 904.277 732.798 904.277C729.292 904.277 726.352 905.549 723.978 908.093C721.604 910.609 720.346 913.818 720.204 917.718H745.433ZM762.691 898.638H769.941V905.083C772.09 902.426 774.365 900.518 776.768 899.359C779.171 898.2 781.842 897.62 784.782 897.62C791.227 897.62 795.58 899.867 797.841 904.362C799.085 906.821 799.707 910.341 799.707 914.92V944.05H791.948V915.429C791.948 912.659 791.538 910.425 790.718 908.729C789.361 905.903 786.902 904.489 783.34 904.489C781.531 904.489 780.047 904.673 778.888 905.04C776.796 905.662 774.959 906.906 773.376 908.772C772.104 910.27 771.27 911.825 770.874 913.436C770.507 915.019 770.323 917.294 770.323 920.263V944.05H762.691V898.638ZM812.555 885.96H820.272V898.638H827.522V904.871H820.272V934.509C820.272 936.092 820.809 937.152 821.883 937.69C822.477 938.001 823.466 938.156 824.851 938.156C825.219 938.156 825.614 938.156 826.038 938.156C826.462 938.128 826.957 938.085 827.522 938.029V944.05C826.646 944.304 825.727 944.488 824.766 944.601C823.834 944.714 822.816 944.771 821.713 944.771C818.152 944.771 815.735 943.866 814.463 942.057C813.191 940.22 812.555 937.845 812.555 934.933V904.871H806.407V898.638H812.555V885.96ZM835.409 881.762H843.041V944.05H835.409V881.762ZM882.899 898.638H891.337C890.263 901.549 887.874 908.192 884.171 918.567C881.401 926.368 879.083 932.729 877.217 937.647C872.807 949.237 869.698 956.304 867.889 958.848C866.08 961.392 862.97 962.664 858.56 962.664C857.486 962.664 856.652 962.622 856.059 962.537C855.493 962.452 854.787 962.297 853.939 962.07V955.117C855.267 955.484 856.228 955.71 856.822 955.795C857.415 955.88 857.938 955.922 858.391 955.922C859.804 955.922 860.836 955.682 861.486 955.201C862.164 954.749 862.73 954.184 863.182 953.505C863.323 953.279 863.832 952.12 864.709 950.028C865.585 947.937 866.221 946.382 866.617 945.364L849.826 898.638H858.476L870.645 935.612L882.899 898.638ZM232.206 1038.13C237.265 1038.13 240.728 1036.22 242.594 1032.41C244.488 1028.56 245.435 1024.29 245.435 1019.6C245.435 1015.36 244.756 1011.91 243.4 1009.26C241.251 1005.07 237.548 1002.98 232.29 1002.98C227.626 1002.98 224.234 1004.76 222.114 1008.32C219.994 1011.88 218.934 1016.18 218.934 1021.21C218.934 1026.05 219.994 1030.07 222.114 1033.3C224.234 1036.52 227.598 1038.13 232.206 1038.13ZM232.502 996.323C238.354 996.323 243.301 998.274 247.343 1002.17C251.385 1006.08 253.406 1011.81 253.406 1019.39C253.406 1026.71 251.625 1032.76 248.064 1037.54C244.502 1042.31 238.976 1044.7 231.485 1044.7C225.238 1044.7 220.277 1042.6 216.602 1038.39C212.927 1034.15 211.09 1028.46 211.09 1021.34C211.09 1013.71 213.026 1007.63 216.899 1003.11C220.771 998.585 225.973 996.323 232.502 996.323ZM262.735 997.638H269.985V1005.48C270.579 1003.96 272.035 1002.1 274.353 999.927C276.671 997.723 279.342 996.62 282.366 996.62C282.508 996.62 282.748 996.634 283.087 996.663C283.427 996.691 284.006 996.747 284.826 996.832V1004.89C284.373 1004.8 283.949 1004.75 283.554 1004.72C283.186 1004.69 282.776 1004.68 282.324 1004.68C278.48 1004.68 275.526 1005.92 273.462 1008.41C271.399 1010.87 270.367 1013.71 270.367 1016.93V1043.05H262.735V997.638ZM307.468 996.832C311.03 996.832 314.139 997.708 316.796 999.461C318.238 1000.45 319.708 1001.89 321.206 1003.79V998.062H328.245V1039.36C328.245 1045.13 327.397 1049.68 325.701 1053.01C322.535 1059.18 316.556 1062.26 307.765 1062.26C302.875 1062.26 298.762 1061.16 295.426 1058.95C292.091 1056.77 290.225 1053.35 289.829 1048.69H297.589C297.956 1050.72 298.691 1052.29 299.793 1053.4C301.518 1055.09 304.232 1055.94 307.935 1055.94C313.786 1055.94 317.616 1053.88 319.425 1049.75C320.5 1047.32 320.994 1042.98 320.909 1036.73C319.383 1039.05 317.546 1040.77 315.397 1041.9C313.249 1043.04 310.408 1043.6 306.875 1043.6C301.956 1043.6 297.645 1041.86 293.942 1038.39C290.267 1034.88 288.43 1029.1 288.43 1021.04C288.43 1013.44 290.281 1007.5 293.984 1003.23C297.716 998.966 302.21 996.832 307.468 996.832ZM321.206 1020.15C321.206 1014.53 320.047 1010.36 317.729 1007.64C315.411 1004.93 312.457 1003.57 308.867 1003.57C303.497 1003.57 299.822 1006.09 297.843 1011.12C296.797 1013.81 296.274 1017.33 296.274 1021.68C296.274 1026.8 297.306 1030.7 299.369 1033.38C301.461 1036.04 304.26 1037.37 307.765 1037.37C313.249 1037.37 317.107 1034.89 319.341 1029.95C320.584 1027.15 321.206 1023.88 321.206 1020.15ZM345.63 1030.97C345.63 1033.17 346.435 1034.91 348.046 1036.18C349.658 1037.45 351.566 1038.09 353.771 1038.09C356.456 1038.09 359.057 1037.47 361.572 1036.22C365.813 1034.16 367.933 1030.78 367.933 1026.09V1019.94C367 1020.53 365.798 1021.03 364.329 1021.43C362.859 1021.82 361.417 1022.1 360.004 1022.27L355.382 1022.87C352.612 1023.23 350.534 1023.81 349.149 1024.61C346.803 1025.93 345.63 1028.05 345.63 1030.97ZM364.117 1015.53C365.869 1015.31 367.042 1014.57 367.636 1013.33C367.975 1012.65 368.145 1011.67 368.145 1010.4C368.145 1007.8 367.212 1005.92 365.346 1004.76C363.509 1003.57 360.866 1002.98 357.417 1002.98C353.431 1002.98 350.605 1004.05 348.937 1006.2C348.004 1007.39 347.396 1009.16 347.114 1011.5H339.99C340.131 1005.91 341.941 1002.02 345.418 999.843C348.923 997.638 352.979 996.535 357.587 996.535C362.929 996.535 367.268 997.553 370.604 999.588C373.911 1001.62 375.565 1004.79 375.565 1009.09V1035.25C375.565 1036.04 375.72 1036.68 376.031 1037.16C376.371 1037.64 377.063 1037.88 378.109 1037.88C378.448 1037.88 378.83 1037.86 379.254 1037.83C379.678 1037.78 380.13 1037.71 380.611 1037.62V1043.26C379.423 1043.6 378.519 1043.81 377.897 1043.9C377.275 1043.98 376.427 1044.03 375.353 1044.03C372.724 1044.03 370.816 1043.09 369.629 1041.23C369.007 1040.24 368.569 1038.84 368.314 1037.03C366.76 1039.06 364.526 1040.83 361.615 1042.33C358.703 1043.83 355.495 1044.58 351.99 1044.58C347.778 1044.58 344.329 1043.3 341.644 1040.76C338.987 1038.19 337.658 1034.98 337.658 1031.13C337.658 1026.92 338.972 1023.66 341.601 1021.34C344.23 1019.02 347.679 1017.59 351.947 1017.06L364.117 1015.53ZM388.116 997.638H395.366V1004.08C397.515 1001.43 399.79 999.518 402.193 998.359C404.596 997.2 407.267 996.62 410.207 996.62C416.652 996.62 421.005 998.867 423.267 1003.36C424.51 1005.82 425.132 1009.34 425.132 1013.92V1043.05H417.373V1014.43C417.373 1011.66 416.963 1009.43 416.143 1007.73C414.786 1004.9 412.327 1003.49 408.765 1003.49C406.956 1003.49 405.472 1003.67 404.313 1004.04C402.221 1004.66 400.384 1005.91 398.801 1007.77C397.529 1009.27 396.695 1010.82 396.299 1012.44C395.932 1014.02 395.748 1016.29 395.748 1019.26V1043.05H388.116V997.638ZM436.454 997.85H444.213V1043.05H436.454V997.85ZM436.454 980.762H444.213V989.412H436.454V980.762ZM452.396 1037.03L479.321 1004.46H454.389V997.638H489.583V1003.87L462.827 1036.22H490.388V1043.05H452.396V1037.03ZM518.119 996.62C521.341 996.62 524.465 997.383 527.489 998.91C530.514 1000.41 532.818 1002.36 534.401 1004.76C535.927 1007.05 536.945 1009.72 537.454 1012.78C537.906 1014.87 538.132 1018.2 538.132 1022.78H504.847C504.988 1027.39 506.077 1031.09 508.112 1033.89C510.147 1036.66 513.299 1038.05 517.568 1038.05C521.553 1038.05 524.733 1036.73 527.108 1034.1C528.465 1032.58 529.426 1030.81 529.991 1028.8H537.496C537.298 1030.47 536.634 1032.34 535.503 1034.4C534.401 1036.44 533.157 1038.1 531.772 1039.4C529.454 1041.66 526.585 1043.19 523.165 1043.98C521.327 1044.43 519.249 1044.66 516.932 1044.66C511.278 1044.66 506.487 1042.61 502.557 1038.51C498.628 1034.39 496.664 1028.62 496.664 1021.21C496.664 1013.92 498.642 1008 502.6 1003.45C506.557 998.896 511.73 996.62 518.119 996.62ZM530.288 1016.72C529.977 1013.41 529.256 1010.77 528.126 1008.79C526.034 1005.11 522.543 1003.28 517.652 1003.28C514.147 1003.28 511.207 1004.55 508.833 1007.09C506.458 1009.61 505.2 1012.82 505.059 1016.72H530.288ZM552.379 1020.87C552.379 1025.74 553.411 1029.81 555.474 1033.09C557.538 1036.36 560.845 1038 565.396 1038C568.93 1038 571.827 1036.49 574.089 1033.47C576.378 1030.41 577.523 1026.05 577.523 1020.37C577.523 1014.63 576.35 1010.39 574.004 1007.64C571.658 1004.87 568.76 1003.49 565.312 1003.49C561.467 1003.49 558.344 1004.96 555.941 1007.9C553.566 1010.84 552.379 1015.16 552.379 1020.87ZM563.87 996.832C567.347 996.832 570.258 997.567 572.605 999.037C573.962 999.885 575.502 1001.37 577.226 1003.49V980.55H584.562V1043.05H577.693V1036.73C575.912 1039.53 573.806 1041.55 571.375 1042.8C568.944 1044.04 566.16 1044.66 563.022 1044.66C557.962 1044.66 553.581 1042.54 549.877 1038.3C546.174 1034.03 544.323 1028.36 544.323 1021.3C544.323 1014.68 546.005 1008.96 549.369 1004.13C552.761 999.263 557.595 996.832 563.87 996.832ZM664.87 980.762V988.182H643.882V1043.05H635.316V988.182H614.328V980.762H664.87ZM673.435 980.762H718.847V988.394H681.661V1007.31H716.049V1014.51H681.661V1035.63H719.483V1043.05H673.435V980.762ZM754.465 1035.84C757.32 1035.84 759.666 1035.54 761.503 1034.95C764.782 1033.85 767.468 1031.73 769.56 1028.59C771.227 1026.08 772.429 1022.85 773.164 1018.92C773.588 1016.58 773.8 1014.4 773.8 1012.39C773.8 1004.68 772.259 998.684 769.178 994.415C766.125 990.147 761.192 988.013 754.38 988.013H739.412V1035.84H754.465ZM730.932 980.762H756.161C764.726 980.762 771.369 983.801 776.089 989.878C780.301 995.362 782.407 1002.39 782.407 1010.95C782.407 1017.57 781.163 1023.55 778.676 1028.89C774.294 1038.33 766.761 1043.05 756.076 1043.05H730.932V980.762ZM835.367 996.62C838.589 996.62 841.713 997.383 844.737 998.91C847.762 1000.41 850.066 1002.36 851.649 1004.76C853.175 1007.05 854.193 1009.72 854.702 1012.78C855.154 1014.87 855.38 1018.2 855.38 1022.78H822.095C822.236 1027.39 823.325 1031.09 825.36 1033.89C827.395 1036.66 830.547 1038.05 834.815 1038.05C838.801 1038.05 841.981 1036.73 844.356 1034.1C845.713 1032.58 846.674 1030.81 847.239 1028.8H854.744C854.546 1030.47 853.882 1032.34 852.751 1034.4C851.649 1036.44 850.405 1038.1 849.02 1039.4C846.702 1041.66 843.833 1043.19 840.412 1043.98C838.575 1044.43 836.497 1044.66 834.179 1044.66C828.526 1044.66 823.735 1042.61 819.805 1038.51C815.876 1034.39 813.912 1028.62 813.912 1021.21C813.912 1013.92 815.89 1008 819.848 1003.45C823.805 998.896 828.978 996.62 835.367 996.62ZM847.536 1016.72C847.225 1013.41 846.504 1010.77 845.373 1008.79C843.282 1005.11 839.791 1003.28 834.9 1003.28C831.395 1003.28 828.455 1004.55 826.081 1007.09C823.706 1009.61 822.448 1012.82 822.307 1016.72H847.536ZM868.525 997.638L880.652 1034.61L893.33 997.638H901.683L884.552 1043.05H876.411L859.663 997.638H868.525ZM927.124 996.62C930.346 996.62 933.47 997.383 936.494 998.91C939.519 1000.41 941.823 1002.36 943.406 1004.76C944.932 1007.05 945.95 1009.72 946.459 1012.78C946.911 1014.87 947.137 1018.2 947.137 1022.78H913.852C913.993 1027.39 915.082 1031.09 917.117 1033.89C919.152 1036.66 922.304 1038.05 926.572 1038.05C930.558 1038.05 933.738 1036.73 936.113 1034.1C937.47 1032.58 938.431 1030.81 938.996 1028.8H946.501C946.303 1030.47 945.639 1032.34 944.508 1034.4C943.406 1036.44 942.162 1038.1 940.777 1039.4C938.459 1041.66 935.59 1043.19 932.169 1043.98C930.332 1044.43 928.254 1044.66 925.936 1044.66C920.283 1044.66 915.491 1042.61 911.562 1038.51C907.633 1034.39 905.668 1028.62 905.668 1021.21C905.668 1013.92 907.647 1008 911.605 1003.45C915.562 998.896 920.735 996.62 927.124 996.62ZM939.293 1016.72C938.982 1013.41 938.261 1010.77 937.13 1008.79C935.038 1005.11 931.547 1003.28 926.657 1003.28C923.152 1003.28 920.212 1004.55 917.838 1007.09C915.463 1009.61 914.205 1012.82 914.064 1016.72H939.293ZM956.55 997.638H963.801V1004.08C965.949 1001.43 968.225 999.518 970.627 998.359C973.03 997.2 975.702 996.62 978.641 996.62C985.086 996.62 989.44 998.867 991.701 1003.36C992.945 1005.82 993.567 1009.34 993.567 1013.92V1043.05H985.807V1014.43C985.807 1011.66 985.397 1009.43 984.578 1007.73C983.221 1004.9 980.761 1003.49 977.2 1003.49C975.391 1003.49 973.907 1003.67 972.748 1004.04C970.656 1004.66 968.818 1005.91 967.235 1007.77C965.963 1009.27 965.129 1010.82 964.734 1012.44C964.366 1014.02 964.182 1016.29 964.182 1019.26V1043.05H956.55V997.638ZM1006.41 984.96H1014.13V997.638H1021.38V1003.87H1014.13V1033.51C1014.13 1035.09 1014.67 1036.15 1015.74 1036.69C1016.34 1037 1017.33 1037.16 1018.71 1037.16C1019.08 1037.16 1019.47 1037.16 1019.9 1037.16C1020.32 1037.13 1020.82 1037.09 1021.38 1037.03V1043.05C1020.51 1043.3 1019.59 1043.49 1018.63 1043.6C1017.69 1043.71 1016.68 1043.77 1015.57 1043.77C1012.01 1043.77 1009.59 1042.87 1008.32 1041.06C1007.05 1039.22 1006.41 1036.85 1006.41 1033.93V1003.87H1000.27V997.638H1006.41V984.96Z" fill="white"/>
<defs>
<filter id="filter0_if_877_2" x="25.5541" y="10.0541" width="1034.9" height="931.192" filterUnits="userSpaceOnUse" color-interpolation-filters="sRGB">
<feFlood flood-opacity="0" result="BackgroundImageFix"/>
<feBlend mode="normal" in="SourceGraphic" in2="BackgroundImageFix" result="shape"/>
<feColorMatrix in="SourceAlpha" type="matrix" values="0 0 0 0 0 0 0 0 0 0 0 0 0 0 0 0 0 0 127 0" result="hardAlpha"/>
<feOffset dx="5.45038" dy="-5.94587"/>
<feGaussianBlur stdDeviation="4.61512"/>
<feComposite in2="hardAlpha" operator="arithmetic" k2="-1" k3="1"/>
<feColorMatrix type="matrix" values="0 0 0 0 0 0 0 0 0 0 0 0 0 0 0 0 0 0 0.43 0"/>
<feBlend mode="normal" in2="shape" result="effect1_innerShadow_877_2"/>
<feGaussianBlur stdDeviation="0.22297" result="effect2_foregroundBlur_877_2"/>
</filter>
</defs>
</svg>
