<svg width="257" height="103" viewBox="0 0 257 103" fill="none" xmlns="http://www.w3.org/2000/svg">
<g clip-path="url(#clip0_1601_259)">
<rect width="257" height="103" fill="white"/>
<path d="M9.66679 26.22V27.5532H11H32.3405V91V92.3332H33.6737H49.5453H50.8785V91V27.5532H72.2189H73.5522V26.22V12V10.6668H72.2189H11H9.66679V12V26.22ZM80.8643 10.6668H79.531V12V91V92.3332H80.8643H127.572H128.905V91V76.78V75.4468H127.572H98.0691V59.0404H126.778H128.112V57.7071V43.9386V42.6054H126.778H98.0691V27.5532H127.345H128.679V26.22V12V10.6668H127.345H80.8643ZM135.959 10.6668H134.625V12V91V92.3332H135.959H164.301C173.379 92.3332 181.096 90.6487 187.388 87.2037L187.393 87.201C193.736 83.693 198.504 78.8377 201.654 72.6444C204.785 66.4869 206.333 59.4654 206.333 51.6129C206.333 43.6873 204.786 36.6277 201.654 30.4684C198.504 24.2761 193.737 19.4214 187.396 15.9136C181.102 12.3901 173.382 10.6668 164.301 10.6668H135.959ZM181.128 69.0961L181.127 69.0967C177.241 73.2418 171.088 75.4468 162.373 75.4468H153.163V27.5532H162.373C171.076 27.5532 177.223 29.8268 181.112 34.113L181.12 34.1214L181.128 34.1296C185.155 38.4202 187.228 44.1992 187.228 51.6129C187.228 59.0265 185.155 64.8055 181.128 69.0961Z" fill="black" stroke="black" stroke-width="2.66642"/>
<mask id="path-2-outside-1_1601_259" maskUnits="userSpaceOnUse" x="171" y="9" width="80" height="84" fill="black">
<rect fill="white" x="171" y="9" width="80" height="84"/>
<path d="M201.072 50.9989L176.114 11.2256H195.146L210.873 37.6651L226.942 11.2256H245.518L220.56 51.3407L246.771 91H227.511L210.873 64.4465L193.778 91H174.86L201.072 50.9989Z"/>
</mask>
<path d="M201.072 50.9989L176.114 11.2256H195.146L210.873 37.6651L226.942 11.2256H245.518L220.56 51.3407L246.771 91H227.511L210.873 64.4465L193.778 91H174.86L201.072 50.9989Z" fill="#EC3225"/>
<path d="M201.072 50.9989L202.745 52.095L203.448 51.0222L202.766 49.9358L201.072 50.9989ZM176.114 11.2256V9.22565H172.498L174.42 12.2887L176.114 11.2256ZM195.146 11.2256L196.865 10.2032L196.283 9.22565H195.146V11.2256ZM210.873 37.6651L209.154 38.6876L210.854 41.5463L212.582 38.7039L210.873 37.6651ZM226.942 11.2256V9.22565H225.817L225.233 10.1869L226.942 11.2256ZM245.518 11.2256L247.216 12.2822L249.117 9.22565H245.518V11.2256ZM220.56 51.3407L218.862 50.2842L218.184 51.3734L218.891 52.4435L220.56 51.3407ZM246.771 91V93H250.49L248.44 89.8972L246.771 91ZM227.511 91L225.817 92.062L226.404 93H227.511V91ZM210.873 64.4465L212.568 63.3846L210.896 60.7163L209.191 63.3639L210.873 64.4465ZM193.778 91V93H194.869L195.46 92.0826L193.778 91ZM174.86 91L173.188 89.9038L171.159 93H174.86V91ZM202.766 49.9358L177.808 10.1626L174.42 12.2887L199.378 52.0619L202.766 49.9358ZM176.114 13.2256H195.146V9.22565H176.114V13.2256ZM193.427 12.2481L209.154 38.6876L212.592 36.6427L196.865 10.2032L193.427 12.2481ZM212.582 38.7039L228.651 12.2644L225.233 10.1869L209.164 36.6264L212.582 38.7039ZM226.942 13.2256H245.518V9.22565H226.942V13.2256ZM243.819 10.1691L218.862 50.2842L222.258 52.3973L247.216 12.2822L243.819 10.1691ZM218.891 52.4435L245.103 92.1028L248.44 89.8972L222.228 50.238L218.891 52.4435ZM246.771 89H227.511V93H246.771V89ZM229.206 89.938L212.568 63.3846L209.178 65.5085L225.817 92.062L229.206 89.938ZM209.191 63.3639L192.097 89.9174L195.46 92.0826L212.554 65.5291L209.191 63.3639ZM193.778 89H174.86V93H193.778V89ZM176.533 92.0962L202.745 52.095L199.399 49.9027L173.188 89.9038L176.533 92.0962Z" fill="#EC3225" mask="url(#path-2-outside-1_1601_259)"/>
</g>
<defs>
<clipPath id="clip0_1601_259">
<rect width="257" height="103" fill="white"/>
</clipPath>
</defs>
</svg>
